<?xml version="1.0" encoding="UTF-8"?><svg xmlns="http://www.w3.org/2000/svg" xmlns:xlink="http://www.w3.org/1999/xlink" viewBox="0 0 243 153"><defs><style>.i{fill:#fff;}.j{fill:#101820;}.k{filter:url(#a);}.l{fill:url(#e);mix-blend-mode:screen;opacity:.1;}.m{isolation:isolate;}</style><filter id="a" filterUnits="userSpaceOnUse"><feOffset dx="0" dy="0"/><feGaussianBlur result="b" stdDeviation="9"/><feFlood flood-color="#000" flood-opacity=".15"/><feComposite in2="b" operator="in"/><feComposite in="SourceGraphic"/></filter><linearGradient id="e" x1="121.5" y1="0" x2="121.5" y2="153" gradientTransform="matrix(1, 0, 0, 1, 0, 0)" gradientUnits="userSpaceOnUse"><stop offset="0" stop-color="#fff"/><stop offset=".22" stop-color="#b5b5b5"/><stop offset=".43" stop-color="#747474"/><stop offset=".62" stop-color="#424242"/><stop offset=".78" stop-color="#1e1e1e"/><stop offset=".91" stop-color="#080808"/><stop offset="1" stop-color="#000"/></linearGradient></defs><g class="m"><g id="c" class="k"><path class="j" d="M234,0H9S0,0,0,9V144S0,153,9,153H234s9,0,9-9V9s0-9-9-9Z"/><g><path class="i" d="M180.08,115.2v3.19h-1.08v-7.8h2.84c1.44,0,2.41,1,2.41,2.31s-.97,2.3-2.41,2.3h-1.76Zm1.56-.97c.93,0,1.51-.52,1.51-1.32s-.57-1.35-1.51-1.35h-1.56v2.67h1.56Z"/><path class="i" d="M185.62,118.39v-7.8h1.08v6.79h3.69v1.01h-4.76Z"/><path class="i" d="M196.22,116.21h-3.45l-.83,2.18h-1.16l3.1-7.8h1.24l3.1,7.8h-1.17l-.85-2.18Zm-3.07-1h2.68l-1.35-3.5-1.33,3.5Z"/><path class="i" d="M202.3,111.59v6.8h-1.08v-6.8h-2.61v-1h6.29v1h-2.61Z"/><path class="i" d="M206.15,118.39v-7.8h1.1v7.8h-1.1Z"/><path class="i" d="M214.63,118.39l-4.21-6.36v6.36h-1.08v-7.8h1.44l3.89,5.99v-5.99h1.08v7.8h-1.12Z"/><path class="i" d="M217.77,115.73v-5.14h1.07v5.11c0,1.19,.65,1.86,1.74,1.86s1.73-.67,1.73-1.86v-5.11h1.08v5.14c0,1.84-1.22,2.83-2.81,2.83s-2.8-.99-2.8-2.83Z"/><path class="i" d="M232.75,118.39v-6.07l-2.66,6.07h-.99l-2.64-6.07v6.07h-1.07v-7.8h1.46l2.75,6.35,2.77-6.35h1.44v7.8h-1.07Z"/></g></g><g id="d"><path class="l" d="M234,0H9S0,0,0,9V144S0,153,9,153H234s9,0,9-9V9s0-9-9-9Z"/></g><g id="f"><g><g><g><path class="i" d="M122.77,17.3v-1.04h-.39v-.14h.93v.14h-.39v1.04h-.16Z"/><path class="i" d="M123.47,17.3v-1.18h.23l.28,.83c.03,.08,.04,.14,.06,.17,.01-.04,.03-.11,.06-.19l.28-.82h.21v1.18h-.15v-.99l-.34,.99h-.14l-.34-1v1h-.15Z"/></g><g><path class="i" d="M87.01,21.82v-2.62h-2.2v-3.26l-2.66,.41v1.12c0,.98-.53,1.73-1.69,1.73h-.55v2.62h1.98v5.08c0,2.11,1.33,3.37,3.46,3.37h1.66v-2.62h-.91c-.84,0-1.29-.31-1.29-1.27v-4.57h2.2Z"/><path class="i" d="M105.6,19.24c-.22-.02-.44-.04-.69-.04-.93,0-2.44,.18-3.11,1.62v-1.62l-2.86,.44v10.48h2.95v-4.99c0-2.35,1.31-3.08,2.82-3.08h.89v-2.8Z"/><path class="i" d="M113.2,19.24c-.22-.02-.44-.04-.69-.04-.93,0-2.44,.18-3.11,1.62v-1.62l-2.86,.44v10.48h2.95v-4.99c0-2.35,1.31-3.08,2.82-3.08h.89v-2.8Z"/><path class="i" d="M69.97,24.53c0-3.51-2.02-5.66-5.39-5.66-2.8,0-5.37,2.26-5.37,5.75,0,3.68,2.64,5.84,5.64,5.84s5-2.18,5-3.93h-2.61c-.39,.83-1.13,1.4-2.37,1.4-1.46,0-2.68-1.04-2.75-2.48h7.81s.05-.49,.05-.91Zm-7.79-1.11c.07-1,.91-2.15,2.44-2.15,1.69,0,2.4,1.07,2.44,2.15h-4.88Z"/><path class="i" d="M98.08,24.53c0-3.51-2.02-5.66-5.39-5.66-2.8,0-5.37,2.26-5.37,5.75,0,3.68,2.64,5.84,5.64,5.84s5-2.18,5-3.93h-2.61c-.39,.83-1.13,1.4-2.37,1.4-1.46,0-2.68-1.04-2.75-2.48h7.81s.05-.49,.05-.91Zm-7.79-1.11c.07-1,.91-2.15,2.44-2.15,1.69,0,2.4,1.07,2.44,2.15h-4.88Z"/><path class="i" d="M79.37,26.86c0,1.78-1.37,3.59-4.24,3.6h0c-2.96,0-4.6-1.81-4.6-3.93h2.58c.03,.43,.21,.85,.54,1.16,.33,.31,.81,.51,1.46,.51,.98,0,1.44-.51,1.44-1.09,0-.49-.33-.89-1.18-1.07l-1.44-.33c-2.11-.47-3.06-1.73-3.06-3.26,0-1.95,1.73-3.57,4.08-3.57,3.05,0,4.11,1.9,4.27,3.08l-2.5,.38c-.16-.59-.66-1.23-1.75-1.23-.78,0-1.4,.47-1.4,1.09,0,.24,.08,.43,.22,.59,.17,.2,.45,.33,.78,.39l1.55,.33c2.15,.44,3.24,1.75,3.24,3.35Z"/><path class="i" d="M123.29,26.39v-3.37c0-2.2-1.29-4.15-4.75-4.15-2.76,0-4.32,1.68-4.64,3.3l2.66,.41c.24-.75,.91-1.34,2-1.34,1.24,0,1.84,.64,1.84,1.42,0,.18-.05,.35-.16,.48-.12,.14-.33,.25-.66,.3l-2.68,.4c-1.82,.27-3.26,1.35-3.26,3.31,0,1.71,1.42,3.28,3.75,3.28,1.51,0,2.69-.68,3.41-1.68,.56,.98,1.61,1.53,3.02,1.53h.75v-2.62c-.84,0-1.29-.31-1.29-1.27Zm-2.88-.69c0,1.93-1.15,2.53-2.4,2.53-.95,0-1.42-.62-1.42-1.27,0-.84,.6-1.27,1.35-1.38l2.46-.38v.49Z"/><polygon class="i" points="57.64 15.94 54.9 24.75 52.18 16.37 52.05 15.94 49.4 15.94 46.54 24.76 43.92 16.32 43.8 15.94 40.77 15.94 45.13 30.13 47.88 30.13 50.72 21.27 53.43 29.75 53.55 30.13 56.3 30.13 60.43 16.74 60.67 15.94 57.64 15.94"/></g></g><g><path class="i" d="M48.3,35.68c-.19,.67-.73,1.07-1.43,1.07-.77,0-1.6-.55-1.6-1.77s.83-1.76,1.6-1.76c.73,0,1.24,.38,1.4,1.06v.03l.54-.18v-.02c-.23-.86-.97-1.4-1.94-1.4-.55,0-1.1,.22-1.49,.59-.44,.42-.68,1.01-.68,1.69,0,1.5,1.09,2.29,2.17,2.29,.96,0,1.7-.54,1.94-1.42v-.02l-.5-.18v.03Z"/><path class="i" d="M49.93,34.59v-.57h-.52v3.18h.53v-1.64c0-.72,.36-1.02,.9-1.02,.09,0,.19,0,.28,.03v-.56s-.14-.03-.23-.03c-.35,0-.76,.15-.96,.62Z"/><path class="i" d="M52.92,33.93c-.8,0-1.51,.67-1.51,1.67,0,1.07,.72,1.69,1.57,1.69,.74,0,1.23-.44,1.41-.99l-.46-.17c-.13,.38-.42,.68-.95,.68-.57,0-1.03-.43-1.03-1.03v-.03h2.45s.01-.12,.01-.19c0-.97-.54-1.64-1.5-1.64Zm-.95,1.37c.03-.47,.4-.9,.95-.9,.6,0,.93,.4,.94,.9h-1.9Z"/><path class="i" d="M57.91,32.77h-.53v1.76c-.11-.27-.42-.6-1.03-.6-.89,0-1.47,.76-1.47,1.68s.56,1.68,1.47,1.68c.55,0,.9-.32,1.04-.64v.09c0,.21,.02,.38,.03,.46h.52c-.01-.07-.03-.28-.03-.6v-3.83Zm-1.51,4.04c-.6,0-.99-.5-.99-1.21s.38-1.2,.99-1.2,.99,.5,.99,1.2-.4,1.21-.99,1.21Z"/><path class="i" d="M58.94,32.37c-.22,0-.4,.18-.4,.4s.18,.4,.4,.4,.4-.18,.4-.4-.18-.4-.4-.4Z"/><rect class="i" x="58.68" y="34.02" width=".53" height="3.18"/><path class="i" d="M60.95,32.72l-.5,.13v.68c0,.3-.14,.48-.46,.48h-.21v.48h.64v1.83c0,.58,.34,.9,.86,.9,.21,0,.36-.04,.42-.06v-.45c-.05,.01-.17,.03-.27,.03-.34,0-.48-.17-.48-.5v-1.76h.75v-.48h-.75v-1.3Z"/><path class="i" d="M66.82,35.59c0,.76-.4,1.19-1.11,1.19s-1.11-.43-1.11-1.19v-2.82h-.56v2.84c0,1.09,.71,1.68,1.66,1.68s1.66-.59,1.66-1.68v-2.84h-.56v2.82Z"/><path class="i" d="M69.7,33.93c-.42,0-.79,.2-.99,.57v-.48h-.52v3.18h.53v-1.87c0-.5,.29-.92,.8-.92,.58,0,.79,.37,.79,.84v1.96h.53v-2.04c0-.69-.37-1.23-1.13-1.23Z"/><path class="i" d="M71.9,32.37c-.22,0-.4,.18-.4,.4s.18,.4,.4,.4,.4-.18,.4-.4-.18-.4-.4-.4Z"/><rect class="i" x="71.63" y="34.02" width=".53" height="3.18"/><path class="i" d="M74.44,33.93c-.91,0-1.59,.7-1.59,1.68s.68,1.68,1.59,1.68,1.59-.7,1.59-1.68-.68-1.68-1.59-1.68Zm0,2.88c-.57,0-1.06-.43-1.06-1.21s.49-1.2,1.06-1.2,1.06,.43,1.06,1.2-.49,1.21-1.06,1.21Z"/><path class="i" d="M78.22,33.93c-.42,0-.79,.2-.99,.57v-.48h-.52v3.18h.53v-1.87c0-.5,.29-.92,.8-.92,.58,0,.79,.37,.79,.84v1.96h.53v-2.04c0-.69-.37-1.23-1.13-1.23Z"/></g><g><path class="i" d="M25.02,31.16l-1.81,1.81c-.67,.66-1.74,.66-2.41,0l-7.07-7.07c-.26-.26-.44-.58-.54-.93h5.59l6.23,6.19Z"/><path class="i" d="M38.31,24.97c-.1,.36-.29,.68-.54,.93h0l-7.08,7.07c-.66,.66-1.74,.66-2.4,0l-8.06-8.01h5.96l3.3,3.08,3.23-3.08h5.59Z"/><path class="i" d="M38.32,23.89h-5.59l-6.23-6.19,1.81-1.81c.66-.66,1.74-.66,2.41,0l7.06,7.06c.26,.26,.45,.58,.54,.94Z"/><path class="i" d="M31.27,23.89h-5.96l-3.3-3.08-3.23,3.08h-5.58c.09-.36,.28-.69,.54-.94h0l7.07-7.06c.66-.66,1.74-.66,2.4,0l8.06,8.01Z"/></g></g></g><g id="g"><g><path class="i" d="M201.03,127.41h.35l-.14,.32-.26,.65-6.33,15.09-.14,.32-.13,.33h-4.57l-.09-.35-.18-.69-3.18-12.3c-.21-.82-.39-1.12-1.03-1.47-.88-.47-2.25-.93-3.56-1.25l-.36-.09c-.11-.03-.23-.05-.34-.08l.1-.48h7.36c.94,0,1.78,.62,1.99,1.7l1.66,8.81,.54-.1,3.86-9.77,.13-.31,.13-.33h4.19Z"/><path class="i" d="M219.29,138.66c0-.12,0-.24-.01-.36l-.1-.67c-.86-3.43-5.98-3.79-5.94-5.59,0-.6,.58-1.24,1.83-1.4,.55-.07,1.96-.13,3.62,.48l.32,.12c.11,.05,.22,.1,.32,.15l.08-.35,.12-.57,.43-1.99,.06-.29,.07-.35c-.1-.04-.22-.08-.33-.11l-.69-.21c-.85-.24-1.86-.42-3.02-.42-4.27,0-7.28,2.27-7.31,5.53-.02,2.4,2.15,3.74,3.79,4.54,1.68,.82,2.25,1.35,2.24,2.08-.01,1.12-1.34,1.62-2.58,1.63-1.74,.03-2.89-.36-3.79-.75l-.33-.15c-.11-.05-.22-.1-.32-.15l-.08,.35-.13,.59-.44,2.08-.06,.29-.08,.35c.1,.05,.21,.09,.33,.14l.66,.22c1.03,.29,2.41,.51,3.82,.53,4.22,0,7.09-1.94,7.48-5.01l.03-.35c.01-.12,.02-.24,.02-.36"/><path class="i" d="M234.49,143.77l-.14-.7-3.13-14.97-.07-.35-.07-.34h-3.69c-.83,0-1.53,.48-1.84,1.22l-6.21,14.83-.14,.33-.14,.33h4.54l.12-.34,.22-.61,.33-.91,.11-.3,.12-.34h5.54l.08,.35,.12,.6,.19,.9,.06,.3,.08,.35h3.99l-.07-.35Zm-8.75-5.57l.13-.34,.22-.62,1.7-4.67,.11-.32,.12-.33,.07,.35,.13,.62,.97,4.65,.07,.31,.07,.35h-3.59Z"/><polygon class="i" points="207.56 127.41 207.48 127.75 207.33 128.45 204.13 143.42 204.06 143.77 203.98 144.12 203.63 144.12 202.91 144.12 200.38 144.12 200.01 144.12 199.66 144.12 199.74 143.77 199.88 143.07 203.09 128.1 203.16 127.75 203.23 127.41 203.59 127.41 204.31 127.41 206.84 127.41 207.2 127.41 207.56 127.41"/></g></g><g id="h"/></g></svg>