<svg xmlns:xlink="http://www.w3.org/1999/xlink" xmlns="http://www.w3.org/2000/svg" id="Layer_1" data-name="Layer 1" viewBox="0 0 501.13 213" width="501.13" height="213"><defs><style>.cls-1{fill:#221e1f;}</style></defs><path class="cls-1" d="M501.13,213H0V0H501.13ZM6,207H495.13V6H6Z"></path><path class="cls-1" d="M90.21,19.42h0L91.84,15h2.49l-3,6.93v4.49h-2.3V21.93l-3-6.93H88.7Z"></path><path class="cls-1" d="M94,20.17a3.74,3.74,0,0,1,.57-1.42,2.6,2.6,0,0,1,1-.86,3.76,3.76,0,0,1,1.59-.3,4,4,0,0,1,1.65.27,2.29,2.29,0,0,1,1,.85,3.68,3.68,0,0,1,.54,1.43,10.43,10.43,0,0,1,.16,2,9.43,9.43,0,0,1-.17,1.95,3.75,3.75,0,0,1-.58,1.42,2.29,2.29,0,0,1-1,.84,4.13,4.13,0,0,1-1.59.27,4.22,4.22,0,0,1-1.65-.25,2.24,2.24,0,0,1-1-.83A3.9,3.9,0,0,1,94,24.1a10.58,10.58,0,0,1-.16-2A9.38,9.38,0,0,1,94,20.17ZM96,23.34a4.21,4.21,0,0,0,.15,1,1.4,1.4,0,0,0,.36.62.91.91,0,0,0,.64.22.93.93,0,0,0,.93-.7,7.44,7.44,0,0,0,.26-2.32,7.44,7.44,0,0,0-.26-2.32.93.93,0,0,0-.93-.7.91.91,0,0,0-.64.22,1.4,1.4,0,0,0-.36.62,4.21,4.21,0,0,0-.15,1c0,.38,0,.78,0,1.22S96,23,96,23.34Z"></path><path class="cls-1" d="M106.3,25.42a2.1,2.1,0,0,1-.91.91,2.9,2.9,0,0,1-1.28.27,2.21,2.21,0,0,1-1.62-.55,2.51,2.51,0,0,1-.57-1.85V17.82h2.21v5.93a1.49,1.49,0,0,0,.22.94.92.92,0,0,0,.72.26c.78,0,1.17-.47,1.17-1.42V17.82h2.21v8.6h-2.12v-1Z"></path><path class="cls-1" d="M112.19,17.82V19h0a3.17,3.17,0,0,1,.82-1,1.85,1.85,0,0,1,1.17-.38h.2l.2,0v2.12l-.35,0h-.34a2.32,2.32,0,0,0-.58.08,1.77,1.77,0,0,0-.53.27,1.31,1.31,0,0,0-.38.48,1.61,1.61,0,0,0-.14.73v5.16h-2.21v-8.6Z"></path><path class="cls-1" d="M121.18,23.9a1.32,1.32,0,0,0,.3.9,1,1,0,0,0,.85.34,1.24,1.24,0,0,0,.82-.25,1,1,0,0,0,.3-.77.79.79,0,0,0-.24-.63,1.77,1.77,0,0,0-.56-.35l-1.55-.56a2.84,2.84,0,0,1-1.37-.9,2.34,2.34,0,0,1-.47-1.5,2.81,2.81,0,0,1,.18-1,2,2,0,0,1,.56-.82,2.8,2.8,0,0,1,1-.56,4.4,4.4,0,0,1,1.45-.21,3.3,3.3,0,0,1,2.22.64,2.3,2.3,0,0,1,.72,1.81v.35h-2a1.69,1.69,0,0,0-.22-1,.84.84,0,0,0-.76-.31,1.13,1.13,0,0,0-.72.23.79.79,0,0,0-.32.69.93.93,0,0,0,.2.58,1.62,1.62,0,0,0,.76.43l1.33.45a2.94,2.94,0,0,1,1.47.92,2.47,2.47,0,0,1,.44,1.54,2.79,2.79,0,0,1-.24,1.2,2.49,2.49,0,0,1-.67.84,2.71,2.71,0,0,1-1,.48,5.7,5.7,0,0,1-1.28.14,5.64,5.64,0,0,1-1.55-.18,2.2,2.2,0,0,1-1-.52,2,2,0,0,1-.51-.86,4.37,4.37,0,0,1-.14-1.13v-.3h2Z"></path><path class="cls-1" d="M126.81,20.25a3,3,0,0,1,.24-1.26,2.18,2.18,0,0,1,.65-.81,2.51,2.51,0,0,1,1-.45,5,5,0,0,1,1.18-.14,5.78,5.78,0,0,1,1.6.19,2.15,2.15,0,0,1,.94.55,1.74,1.74,0,0,1,.46.84,4.41,4.41,0,0,1,.12,1.06v4.53a7.22,7.22,0,0,0,0,.94,3.1,3.1,0,0,0,.22.72h-2.11A1.55,1.55,0,0,1,131,26c0-.15-.07-.3-.1-.45h0a1.83,1.83,0,0,1-.88.87,3.72,3.72,0,0,1-1.31.2,2.25,2.25,0,0,1-1-.2,1.68,1.68,0,0,1-.63-.55,2.7,2.7,0,0,1-.36-.79,3.85,3.85,0,0,1-.11-.88,3.56,3.56,0,0,1,.13-1,2,2,0,0,1,.39-.76,2.35,2.35,0,0,1,.67-.52,5.61,5.61,0,0,1,1-.36l1.25-.34a1.23,1.23,0,0,0,.68-.35,1,1,0,0,0,.2-.66,1.13,1.13,0,0,0-.24-.77,1.19,1.19,0,0,0-1.56,0,1.22,1.22,0,0,0-.25.82v.24h-2Zm3.56,2.15a3.11,3.11,0,0,1-.47.15,1.73,1.73,0,0,0-1,.48,1.38,1.38,0,0,0-.29.91,1.72,1.72,0,0,0,.2.85.65.65,0,0,0,.64.35,1.56,1.56,0,0,0,.46-.07,1.24,1.24,0,0,0,.44-.23,1.28,1.28,0,0,0,.33-.42,1.4,1.4,0,0,0,.13-.6v-1.7A1.94,1.94,0,0,1,130.37,22.4Z"></path><path class="cls-1" d="M141,17.82l-2.16,8.6h-2.56L134,17.82h2.3L137.57,24h0l1.17-6.16Z"></path><path class="cls-1" d="M144.24,14.87v1.89H142V14.87Zm0,3v8.6H142v-8.6Z"></path><path class="cls-1" d="M148.06,17.82v1h0a2.33,2.33,0,0,1,.91-.93,2.69,2.69,0,0,1,1.28-.3,2.17,2.17,0,0,1,1.63.58,2.58,2.58,0,0,1,.57,1.87v6.38h-2.21V20.49a1.48,1.48,0,0,0-.23-.94.89.89,0,0,0-.72-.26c-.77,0-1.16.47-1.16,1.42v5.71H146v-8.6Z"></path><path class="cls-1" d="M160.56,26a3.43,3.43,0,0,1-.83,2.5,3.81,3.81,0,0,1-2.76.83,3.39,3.39,0,0,1-2.16-.6A2,2,0,0,1,154,27h2.12a.77.77,0,0,0,.33.65,1.16,1.16,0,0,0,.35.18,1.23,1.23,0,0,0,.39.06,1,1,0,0,0,.94-.43,2,2,0,0,0,.27-1.07V25.27h0a2.61,2.61,0,0,1-.82.77,2,2,0,0,1-1,.29,2.2,2.2,0,0,1-2-1,6.25,6.25,0,0,1-.67-3.35,13.52,13.52,0,0,1,.09-1.54,4.86,4.86,0,0,1,.37-1.42,2.59,2.59,0,0,1,.82-1,2.36,2.36,0,0,1,1.43-.4,2.1,2.1,0,0,1,1,.26,1.89,1.89,0,0,1,.81.93h0v-1h2.12Zm-4.38-2.75a2.85,2.85,0,0,0,.16.71,1.14,1.14,0,0,0,.34.5.85.85,0,0,0,.57.18.93.93,0,0,0,.58-.18,1.25,1.25,0,0,0,.37-.51,3,3,0,0,0,.19-.77,7.87,7.87,0,0,0,.05-1,7.23,7.23,0,0,0-.24-2.23.92.92,0,0,0-.91-.65,1,1,0,0,0-.59.16,1,1,0,0,0-.35.52,3.61,3.61,0,0,0-.17,1c0,.4,0,.89,0,1.46A7.69,7.69,0,0,0,156.18,23.24Z"></path><path class="cls-1" d="M163.88,23.9a1.32,1.32,0,0,0,.3.9,1.07,1.07,0,0,0,.86.34,1.21,1.21,0,0,0,.81-.25.93.93,0,0,0,.31-.77.79.79,0,0,0-.24-.63,1.89,1.89,0,0,0-.56-.35l-1.56-.56a2.94,2.94,0,0,1-1.37-.9,2.34,2.34,0,0,1-.47-1.5,2.81,2.81,0,0,1,.18-1,2.15,2.15,0,0,1,.56-.82,2.9,2.9,0,0,1,1-.56,4.44,4.44,0,0,1,1.45-.21,3.32,3.32,0,0,1,2.23.64,2.3,2.3,0,0,1,.72,1.81v.35h-2a1.78,1.78,0,0,0-.21-1,.86.86,0,0,0-.76-.31,1.16,1.16,0,0,0-.73.23.79.79,0,0,0-.31.69.87.87,0,0,0,.2.58A1.52,1.52,0,0,0,165,21l1.32.45a3,3,0,0,1,1.48.92,2.54,2.54,0,0,1,.43,1.54,2.79,2.79,0,0,1-.24,1.2,2.38,2.38,0,0,1-.67.84,2.66,2.66,0,0,1-1,.48,6.4,6.4,0,0,1-2.84,0,2.2,2.2,0,0,1-1-.52A2,2,0,0,1,162,25a4.37,4.37,0,0,1-.14-1.13v-.3h2Z"></path><path class="cls-1" d="M172.89,19.32v-1.5H174v-1a2.83,2.83,0,0,1,.16-1,1.6,1.6,0,0,1,.46-.64,1.83,1.83,0,0,1,.73-.34,4,4,0,0,1,1-.1c.39,0,.79,0,1.18,0v1.57h-.43a1,1,0,0,0-.66.16.62.62,0,0,0-.19.52v.76h1.28v1.5h-1.28v7.1H174v-7.1Z"></path><path class="cls-1" d="M180.32,23.14a6,6,0,0,0,.05.75,2.4,2.4,0,0,0,.19.64,1.25,1.25,0,0,0,.33.45.8.8,0,0,0,.51.16.89.89,0,0,0,.82-.4,2.86,2.86,0,0,0,.35-1.21h2a3.52,3.52,0,0,1-.8,2.29,3.07,3.07,0,0,1-2.32.78,3.67,3.67,0,0,1-1.88-.4,2.58,2.58,0,0,1-1-1.06,4.19,4.19,0,0,1-.39-1.47c-.05-.54-.07-1.09-.07-1.63a11.08,11.08,0,0,1,.12-1.66,4,4,0,0,1,.48-1.43,2.66,2.66,0,0,1,1-1,3.69,3.69,0,0,1,1.79-.37,3.61,3.61,0,0,1,1.58.31,2.5,2.5,0,0,1,1,.88,3.87,3.87,0,0,1,.48,1.38,12.27,12.27,0,0,1,.13,1.8v.5h-4.37Zm2.19-2.87a2.21,2.21,0,0,0-.17-.64.89.89,0,0,0-.34-.4,1,1,0,0,0-.55-.13.94.94,0,0,0-.55.15,1,1,0,0,0-.34.4,1.88,1.88,0,0,0-.19.55,4.18,4.18,0,0,0-.05.61v.33h2.25Q182.56,20.64,182.51,20.27Z"></path><path class="cls-1" d="M190.38,25.51a2.24,2.24,0,0,1-.82.85,2.42,2.42,0,0,1-1.13.24,2.18,2.18,0,0,1-2-1,6.83,6.83,0,0,1-.64-3.44,7,7,0,0,1,.64-3.46,2.16,2.16,0,0,1,2-1.07,2.08,2.08,0,0,1,1.06.26,2.31,2.31,0,0,1,.79.77h0V15h2.2V26.42h-2.11v-.91Zm-2.17-1.27a1,1,0,0,0,1.89,0,7.9,7.9,0,0,0,.22-2.12A8,8,0,0,0,190.1,20a1,1,0,0,0-1.89,0,8,8,0,0,0-.21,2.12A8,8,0,0,0,188.21,24.24Z"></path><path class="cls-1" d="M196,23.14a4.56,4.56,0,0,0,.06.75,2.84,2.84,0,0,0,.18.64,1.41,1.41,0,0,0,.34.45.8.8,0,0,0,.51.16.89.89,0,0,0,.82-.4,2.86,2.86,0,0,0,.35-1.21h2a3.46,3.46,0,0,1-.8,2.29,3.05,3.05,0,0,1-2.32.78,3.63,3.63,0,0,1-1.87-.4,2.46,2.46,0,0,1-1-1.06,4.19,4.19,0,0,1-.39-1.47c0-.54-.07-1.09-.07-1.63a11.08,11.08,0,0,1,.12-1.66,4,4,0,0,1,.48-1.43,2.66,2.66,0,0,1,1-1,3.67,3.67,0,0,1,1.79-.37,3.61,3.61,0,0,1,1.58.31,2.4,2.4,0,0,1,1,.88,3.52,3.52,0,0,1,.48,1.38,11,11,0,0,1,.13,1.8v.5H196Zm2.2-2.87a2.58,2.58,0,0,0-.17-.64.89.89,0,0,0-.34-.4,1,1,0,0,0-.55-.13.94.94,0,0,0-.55.15,1,1,0,0,0-.35.4,2.22,2.22,0,0,0-.18.55,3.15,3.15,0,0,0-.06.61v.33h2.26Q198.28,20.64,198.24,20.27Z"></path><path class="cls-1" d="M203.84,17.82V19h0a3,3,0,0,1,.81-1,1.85,1.85,0,0,1,1.17-.38h.2l.2,0v2.12l-.34,0h-.35a2.24,2.24,0,0,0-.57.08,1.77,1.77,0,0,0-.53.27,1.21,1.21,0,0,0-.38.48,1.61,1.61,0,0,0-.15.73v5.16h-2.21v-8.6Z"></path><path class="cls-1" d="M207.2,20.25a3,3,0,0,1,.24-1.26,2.16,2.16,0,0,1,.64-.81,2.65,2.65,0,0,1,1-.45,5,5,0,0,1,1.18-.14,5.78,5.78,0,0,1,1.6.19,2.1,2.1,0,0,1,.94.55,1.74,1.74,0,0,1,.46.84,4.41,4.41,0,0,1,.12,1.06v4.53a5.57,5.57,0,0,0,.06.94,3.05,3.05,0,0,0,.21.72H211.5a1.92,1.92,0,0,1-.17-.44c0-.15-.07-.3-.1-.45h0a1.89,1.89,0,0,1-.89.87,3.68,3.68,0,0,1-1.31.2,2.18,2.18,0,0,1-1-.2,1.64,1.64,0,0,1-.64-.55,2.45,2.45,0,0,1-.35-.79,3.39,3.39,0,0,1-.12-.88,3.93,3.93,0,0,1,.13-1,2.18,2.18,0,0,1,.39-.76,2.27,2.27,0,0,1,.68-.52,5.49,5.49,0,0,1,1-.36l1.25-.34a1.31,1.31,0,0,0,.69-.35,1,1,0,0,0,.19-.66,1.18,1.18,0,0,0-.23-.77,1,1,0,0,0-.8-.28.94.94,0,0,0-.76.3,1.22,1.22,0,0,0-.26.82v.24h-2Zm3.55,2.15a2.79,2.79,0,0,1-.47.15,1.81,1.81,0,0,0-1,.48,1.38,1.38,0,0,0-.28.91,1.72,1.72,0,0,0,.19.85.66.66,0,0,0,.64.35,1.51,1.51,0,0,0,.46-.07,1.24,1.24,0,0,0,.44-.23,1.17,1.17,0,0,0,.33-.42,1.26,1.26,0,0,0,.13-.6v-1.7A1.94,1.94,0,0,1,210.75,22.4Z"></path><path class="cls-1" d="M217.36,15V26.42h-2.21V15Z"></path><path class="cls-1" d="M221.36,15V26.42h-2.21V15Z"></path><path class="cls-1" d="M223.64,27.59a1.07,1.07,0,0,0,.88-.32,1.52,1.52,0,0,0,.31-.85l-2.42-8.6h2.31L226,23.77h0l1.12-5.95h2.21l-2.08,8a17,17,0,0,1-.56,1.73,2.87,2.87,0,0,1-.62,1,1.7,1.7,0,0,1-.86.47,6.41,6.41,0,0,1-1.28.11h-.89V27.54A2.75,2.75,0,0,0,223.64,27.59Z"></path><path class="cls-1" d="M236.62,14.87v1.89h-2.21V14.87Zm0,3v8.6h-2.21v-8.6Z"></path><path class="cls-1" d="M240.44,17.82v1h0a2.21,2.21,0,0,1,.91-.93,2.66,2.66,0,0,1,1.28-.3,2.16,2.16,0,0,1,1.62.58,2.58,2.58,0,0,1,.57,1.87v6.38h-2.21V20.49a1.49,1.49,0,0,0-.22-.94.92.92,0,0,0-.72-.26c-.78,0-1.17.47-1.17,1.42v5.71h-2.21v-8.6Z"></path><path class="cls-1" d="M248.11,23.9a1.37,1.37,0,0,0,.29.9,1.08,1.08,0,0,0,.86.34,1.25,1.25,0,0,0,.82-.25,1,1,0,0,0,.3-.77.79.79,0,0,0-.24-.63,1.89,1.89,0,0,0-.56-.35L248,22.58a2.92,2.92,0,0,1-1.38-.9,2.33,2.33,0,0,1-.46-1.5,3,3,0,0,1,.17-1,2.27,2.27,0,0,1,.56-.82,3,3,0,0,1,1-.56,4.4,4.4,0,0,1,1.45-.21,3.3,3.3,0,0,1,2.22.64A2.3,2.3,0,0,1,252.3,20v.35h-2a1.77,1.77,0,0,0-.22-1,.85.85,0,0,0-.76-.31,1.16,1.16,0,0,0-.73.23.79.79,0,0,0-.31.69.93.93,0,0,0,.2.58,1.56,1.56,0,0,0,.76.43l1.33.45a3,3,0,0,1,1.47.92,2.47,2.47,0,0,1,.43,1.54,2.79,2.79,0,0,1-.24,1.2,2.47,2.47,0,0,1-.66.84,2.78,2.78,0,0,1-1,.48,5.73,5.73,0,0,1-1.29.14,5.56,5.56,0,0,1-1.54-.18,2.24,2.24,0,0,1-1-.52,1.87,1.87,0,0,1-.5-.86,4,4,0,0,1-.15-1.13v-.3h2Z"></path><path class="cls-1" d="M258.14,25.42a2.16,2.16,0,0,1-.91.91,2.93,2.93,0,0,1-1.28.27,2.23,2.23,0,0,1-1.63-.55,2.51,2.51,0,0,1-.56-1.85V17.82H256v5.93a1.48,1.48,0,0,0,.23.94.92.92,0,0,0,.72.26c.78,0,1.16-.47,1.16-1.42V17.82h2.21v8.6h-2.11v-1Z"></path><path class="cls-1" d="M264,17.82V19h0a3,3,0,0,1,.82-1,1.8,1.8,0,0,1,1.16-.38h.2l.2,0v2.12l-.34,0h-.34a2.25,2.25,0,0,0-.58.08,1.77,1.77,0,0,0-.53.27,1.21,1.21,0,0,0-.38.48,1.61,1.61,0,0,0-.15.73v5.16h-2.2v-8.6Z"></path><path class="cls-1" d="M269.29,23.14a4.56,4.56,0,0,0,.06.75,2.4,2.4,0,0,0,.18.64,1.41,1.41,0,0,0,.34.45.8.8,0,0,0,.51.16.91.91,0,0,0,.82-.4,3,3,0,0,0,.35-1.21h2a3.46,3.46,0,0,1-.8,2.29,3.05,3.05,0,0,1-2.32.78,3.63,3.63,0,0,1-1.87-.4,2.46,2.46,0,0,1-1-1.06,3.8,3.8,0,0,1-.39-1.47c-.05-.54-.08-1.09-.08-1.63a11.08,11.08,0,0,1,.12-1.66,4,4,0,0,1,.48-1.43,2.68,2.68,0,0,1,1-1,3.64,3.64,0,0,1,1.79-.37,3.56,3.56,0,0,1,1.57.31,2.43,2.43,0,0,1,1,.88,3.52,3.52,0,0,1,.48,1.38,11,11,0,0,1,.13,1.8v.5h-4.37Zm2.19-2.87a2.6,2.6,0,0,0-.16-.64,1,1,0,0,0-.34-.4,1,1,0,0,0-.55-.13.92.92,0,0,0-.55.15,1,1,0,0,0-.35.4,1.87,1.87,0,0,0-.18.55,3.15,3.15,0,0,0-.06.61v.33h2.26A7,7,0,0,0,271.48,20.27Z"></path><path class="cls-1" d="M279.35,25.51a2.17,2.17,0,0,1-.82.85,2.39,2.39,0,0,1-1.13.24,2.2,2.2,0,0,1-2-1,6.94,6.94,0,0,1-.64-3.44,7.09,7.09,0,0,1,.64-3.46,2.18,2.18,0,0,1,2-1.07,2.12,2.12,0,0,1,1.07.26,2.5,2.5,0,0,1,.79.77h0V15h2.21V26.42h-2.11v-.91Zm-2.16-1.27a.9.9,0,0,0,.93.71.91.91,0,0,0,.95-.71,7.5,7.5,0,0,0,.22-2.12,7.55,7.55,0,0,0-.22-2.12.91.91,0,0,0-.95-.71.9.9,0,0,0-.93.71,7.55,7.55,0,0,0-.22,2.12A7.5,7.5,0,0,0,277.19,24.24Z"></path><path class="cls-1" d="M289.82,15.35v2.47h1.28v1.5h-1.28V24a1.29,1.29,0,0,0,.15.72c.1.15.31.22.63.22h.26l.24,0v1.53c-.25,0-.48,0-.71,0l-.73,0a5,5,0,0,1-1.05-.09A1,1,0,0,1,288,26a1.41,1.41,0,0,1-.3-.69,6.49,6.49,0,0,1-.08-1.09V19.32h-1.12v-1.5h1.12V15.35Z"></path><path class="cls-1" d="M291.91,20.17a3.75,3.75,0,0,1,.58-1.42,2.6,2.6,0,0,1,1.05-.86,3.76,3.76,0,0,1,1.59-.3,4,4,0,0,1,1.65.27,2.29,2.29,0,0,1,1,.85,3.85,3.85,0,0,1,.54,1.43,10.43,10.43,0,0,1,.16,2,10.18,10.18,0,0,1-.17,1.95,3.75,3.75,0,0,1-.58,1.42,2.4,2.4,0,0,1-1,.84,4.13,4.13,0,0,1-1.59.27,4.22,4.22,0,0,1-1.65-.25,2.24,2.24,0,0,1-1-.83,3.9,3.9,0,0,1-.54-1.42,10.58,10.58,0,0,1-.16-2A10.18,10.18,0,0,1,291.91,20.17ZM294,23.34a4.21,4.21,0,0,0,.15,1,1.4,1.4,0,0,0,.36.62.89.89,0,0,0,.64.22.93.93,0,0,0,.93-.7,7.51,7.51,0,0,0,.25-2.32,7.51,7.51,0,0,0-.25-2.32.93.93,0,0,0-.93-.7.89.89,0,0,0-.64.22,1.4,1.4,0,0,0-.36.62,4.21,4.21,0,0,0-.15,1c0,.38,0,.78,0,1.22S294,23,294,23.34Z"></path><path class="cls-1" d="M303.85,20.25a3,3,0,0,1,.24-1.26,2.18,2.18,0,0,1,.65-.81,2.51,2.51,0,0,1,1-.45,4.93,4.93,0,0,1,1.17-.14,5.68,5.68,0,0,1,1.6.19,2.19,2.19,0,0,1,.95.55,1.81,1.81,0,0,1,.45.84,4.41,4.41,0,0,1,.12,1.06v4.53a5.57,5.57,0,0,0,.06.94,3.1,3.1,0,0,0,.22.72h-2.12A1.54,1.54,0,0,1,308,26c0-.15-.08-.3-.11-.45h0a1.85,1.85,0,0,1-.89.87,3.62,3.62,0,0,1-1.3.2,2.22,2.22,0,0,1-1-.2,1.71,1.71,0,0,1-.64-.55,2.68,2.68,0,0,1-.35-.79,3.85,3.85,0,0,1-.11-.88,3.56,3.56,0,0,1,.13-1,1.89,1.89,0,0,1,.39-.76,2.22,2.22,0,0,1,.67-.52,5.49,5.49,0,0,1,1-.36l1.25-.34a1.31,1.31,0,0,0,.69-.35,1,1,0,0,0,.19-.66,1.13,1.13,0,0,0-.23-.77,1.19,1.19,0,0,0-1.56,0,1.22,1.22,0,0,0-.26.82v.24h-2Zm3.55,2.15a2.71,2.71,0,0,1-.46.15,1.73,1.73,0,0,0-1,.48,1.38,1.38,0,0,0-.29.91,1.72,1.72,0,0,0,.19.85.66.66,0,0,0,.64.35,1.58,1.58,0,0,0,.47-.07,1.33,1.33,0,0,0,.44-.23,1.14,1.14,0,0,0,.32-.42,1.26,1.26,0,0,0,.13-.6v-1.7A1.94,1.94,0,0,1,307.4,22.4Z"></path><path class="cls-1" d="M314.41,15.35v2.47h1.28v1.5h-1.28V24a1.29,1.29,0,0,0,.15.72c.1.15.31.22.63.22h.26l.24,0v1.53c-.25,0-.48,0-.71,0l-.73,0a5,5,0,0,1-1.05-.09,1,1,0,0,1-.62-.35,1.41,1.41,0,0,1-.3-.69,6.49,6.49,0,0,1-.08-1.09V19.32h-1.12v-1.5h1.12V15.35Z"></path><path class="cls-1" d="M322.91,15V26.42H320.7V15Z"></path><path class="cls-1" d="M326.51,23.14a4.57,4.57,0,0,0,.05.75,2.4,2.4,0,0,0,.19.64,1.25,1.25,0,0,0,.33.45.8.8,0,0,0,.51.16.89.89,0,0,0,.82-.4,2.86,2.86,0,0,0,.35-1.21h2a3.52,3.52,0,0,1-.8,2.29,3.08,3.08,0,0,1-2.32.78,3.67,3.67,0,0,1-1.88-.4,2.52,2.52,0,0,1-1-1.06,4.19,4.19,0,0,1-.39-1.47c-.05-.54-.07-1.09-.07-1.63a11.08,11.08,0,0,1,.12-1.66A4,4,0,0,1,324.9,19a2.66,2.66,0,0,1,1-1,3.67,3.67,0,0,1,1.79-.37,3.61,3.61,0,0,1,1.58.31,2.5,2.5,0,0,1,1,.88,3.87,3.87,0,0,1,.48,1.38,12.34,12.34,0,0,1,.12,1.8v.5h-4.36Zm2.19-2.87a2.21,2.21,0,0,0-.17-.64.89.89,0,0,0-.34-.4,1,1,0,0,0-.55-.13.94.94,0,0,0-.55.15,1,1,0,0,0-.34.4,1.88,1.88,0,0,0-.19.55,3.14,3.14,0,0,0-.05.61v.33h2.25Q328.75,20.64,328.7,20.27Z"></path><path class="cls-1" d="M332.17,20.25a3,3,0,0,1,.24-1.26,2.18,2.18,0,0,1,.65-.81,2.51,2.51,0,0,1,1-.45,4.93,4.93,0,0,1,1.17-.14,5.73,5.73,0,0,1,1.6.19,2.19,2.19,0,0,1,.95.55,1.81,1.81,0,0,1,.45.84,4.41,4.41,0,0,1,.12,1.06v4.53a5.57,5.57,0,0,0,.06.94,3.1,3.1,0,0,0,.22.72h-2.12a1.54,1.54,0,0,1-.16-.44c0-.15-.08-.3-.11-.45h0a1.85,1.85,0,0,1-.89.87,3.62,3.62,0,0,1-1.3.2,2.22,2.22,0,0,1-1-.2,1.64,1.64,0,0,1-.64-.55,2.45,2.45,0,0,1-.35-.79,3.85,3.85,0,0,1-.11-.88,3.56,3.56,0,0,1,.13-1,1.89,1.89,0,0,1,.39-.76,2.22,2.22,0,0,1,.67-.52,5.49,5.49,0,0,1,1-.36l1.25-.34a1.31,1.31,0,0,0,.69-.35,1,1,0,0,0,.19-.66,1.18,1.18,0,0,0-.23-.77,1,1,0,0,0-.79-.28,1,1,0,0,0-.77.3,1.22,1.22,0,0,0-.26.82v.24h-2Zm3.55,2.15a2.71,2.71,0,0,1-.46.15,1.73,1.73,0,0,0-1,.48,1.38,1.38,0,0,0-.29.91,1.72,1.72,0,0,0,.19.85.66.66,0,0,0,.64.35,1.58,1.58,0,0,0,.47-.07,1.33,1.33,0,0,0,.44-.23,1.14,1.14,0,0,0,.32-.42,1.26,1.26,0,0,0,.13-.6v-1.7A1.94,1.94,0,0,1,335.72,22.4Z"></path><path class="cls-1" d="M341.66,23.9a1.37,1.37,0,0,0,.29.9,1.08,1.08,0,0,0,.86.34,1.25,1.25,0,0,0,.82-.25,1,1,0,0,0,.3-.77.79.79,0,0,0-.24-.63,1.89,1.89,0,0,0-.56-.35l-1.55-.56a2.92,2.92,0,0,1-1.38-.9,2.33,2.33,0,0,1-.46-1.5,3,3,0,0,1,.17-1,2.27,2.27,0,0,1,.56-.82,3,3,0,0,1,1-.56,4.38,4.38,0,0,1,1.44-.21,3.32,3.32,0,0,1,2.23.64,2.3,2.3,0,0,1,.72,1.81v.35h-2a1.78,1.78,0,0,0-.21-1,.85.85,0,0,0-.76-.31,1.16,1.16,0,0,0-.73.23.79.79,0,0,0-.31.69.93.93,0,0,0,.2.58,1.56,1.56,0,0,0,.76.43l1.33.45a3,3,0,0,1,1.47.92,2.47,2.47,0,0,1,.43,1.54,2.79,2.79,0,0,1-.24,1.2,2.47,2.47,0,0,1-.66.84,2.78,2.78,0,0,1-1,.48,5.73,5.73,0,0,1-1.29.14,5.56,5.56,0,0,1-1.54-.18,2.24,2.24,0,0,1-1-.52,1.87,1.87,0,0,1-.5-.86,4,4,0,0,1-.15-1.13v-.3h2Z"></path><path class="cls-1" d="M350,15.35v2.47h1.28v1.5H350V24a1.29,1.29,0,0,0,.15.72.75.75,0,0,0,.64.22H351l.24,0v1.53c-.24,0-.48,0-.71,0l-.73,0a5.06,5.06,0,0,1-1.05-.09,1,1,0,0,1-.62-.35,1.62,1.62,0,0,1-.3-.69,6.49,6.49,0,0,1-.08-1.09V19.32h-1.12v-1.5h1.12V15.35Z"></path><path class="cls-1" d="M357.14,26.26a2.37,2.37,0,0,1-1-.71,2.47,2.47,0,0,1-.45-1,5.62,5.62,0,0,1-.12-1.18V23h2.21c0,.23,0,.44,0,.65a2.39,2.39,0,0,0,.12.57,1.18,1.18,0,0,0,.28.44,1,1,0,0,0,.5.26V21.72l-.8-.29a3.23,3.23,0,0,1-1.68-1.19,3.34,3.34,0,0,1-.51-1.88,3.19,3.19,0,0,1,.78-2.3,3.49,3.49,0,0,1,2.21-1V14h1V15.1a4,4,0,0,1,1.46.36,2.58,2.58,0,0,1,.91.69,2.39,2.39,0,0,1,.46.93,4.06,4.06,0,0,1,.13,1v.22h-2.21a2.9,2.9,0,0,0-.18-1,.86.86,0,0,0-.57-.54v3l1.26.51a7.62,7.62,0,0,1,.81.41,2.37,2.37,0,0,1,.62.56,2.55,2.55,0,0,1,.4.79,4.1,4.1,0,0,1,.14,1.13,3.27,3.27,0,0,1-.82,2.5,3.83,3.83,0,0,1-2.41.88V28h-1V26.6A5.25,5.25,0,0,1,357.14,26.26ZM358,18a1.45,1.45,0,0,0,.78,1.34V16.79A1.11,1.11,0,0,0,358,18Zm2.52,6.47a1.58,1.58,0,0,0,.22-.81,1.71,1.71,0,0,0-.24-1,1.77,1.77,0,0,0-.69-.59V25A1,1,0,0,0,360.48,24.48Z"></path><path class="cls-1" d="M363.59,26.42a6.2,6.2,0,0,1,.15-1.4,5.37,5.37,0,0,1,.47-1.25,6.93,6.93,0,0,1,.78-1.16,12.91,12.91,0,0,1,1.1-1.15l.93-.86a5,5,0,0,0,.61-.62,2.48,2.48,0,0,0,.36-.58,2.11,2.11,0,0,0,.17-.62,6,6,0,0,0,0-.77c0-.94-.37-1.41-1.12-1.41a1.14,1.14,0,0,0-.68.18,1,1,0,0,0-.38.48,2.31,2.31,0,0,0-.18.7,7.69,7.69,0,0,0,0,.85h-2.21v-.43a3.29,3.29,0,0,1,.85-2.44,3.69,3.69,0,0,1,2.67-.84,3.54,3.54,0,0,1,2.56.8,3,3,0,0,1,.83,2.28,5.38,5.38,0,0,1-.09,1,4.08,4.08,0,0,1-.85,1.74,6.42,6.42,0,0,1-.82.84L367.46,23a5.28,5.28,0,0,0-.8.9,2.65,2.65,0,0,0-.36.76h4.27v1.79Z"></path><path class="cls-1" d="M373.77,17.11l-.24,2.58h0a1.77,1.77,0,0,1,.83-.65,3.52,3.52,0,0,1,1.25-.2,2.64,2.64,0,0,1,1.35.31,2.42,2.42,0,0,1,.85.83,3.5,3.5,0,0,1,.44,1.16,6.42,6.42,0,0,1,.13,1.32,8.88,8.88,0,0,1-.16,1.71,3.44,3.44,0,0,1-.57,1.32,2.47,2.47,0,0,1-1.11.83,4.84,4.84,0,0,1-1.79.28,4.44,4.44,0,0,1-1.74-.29,2.45,2.45,0,0,1-1-.76,2.64,2.64,0,0,1-.47-1,4.87,4.87,0,0,1-.12-1v-.31h2.21c0,.19,0,.4,0,.61a2,2,0,0,0,.15.6,1.15,1.15,0,0,0,.35.46.85.85,0,0,0,.59.19,1.1,1.1,0,0,0,1-.55,3.45,3.45,0,0,0,.31-1.66,9.42,9.42,0,0,0-.06-1.17,1.85,1.85,0,0,0-.22-.73.84.84,0,0,0-.4-.39,1.71,1.71,0,0,0-.64-.11,1,1,0,0,0-.76.28,1.3,1.3,0,0,0-.33.76h-2.07l.42-6.16h5.9v1.79Z"></path><path class="cls-1" d="M379.35,18.87a6.22,6.22,0,0,1,.43-1.93,3.08,3.08,0,0,1,1.07-1.34,3.32,3.32,0,0,1,2-.5,4.26,4.26,0,0,1,1.72.29,2.39,2.39,0,0,1,1.09.95,4.64,4.64,0,0,1,.58,1.71,16.69,16.69,0,0,1,.17,2.55c0,.79,0,1.55-.08,2.27a6.15,6.15,0,0,1-.44,1.93,2.89,2.89,0,0,1-1.06,1.32,3.51,3.51,0,0,1-2,.48,4.72,4.72,0,0,1-1.71-.27A2.19,2.19,0,0,1,380,25.4a4.47,4.47,0,0,1-.58-1.7,16.73,16.73,0,0,1-.17-2.56C379.27,20.35,379.3,19.6,379.35,18.87Zm2.28,4.52a4.54,4.54,0,0,0,.2,1.07,1,1,0,0,0,.39.54,1.11,1.11,0,0,0,.6.14,1,1,0,0,0,.63-.18,1.19,1.19,0,0,0,.37-.62,5.83,5.83,0,0,0,.2-1.18c0-.49.05-1.1.05-1.82V20.1c0-.71,0-1.29-.05-1.75a4.64,4.64,0,0,0-.2-1.07,1.05,1.05,0,0,0-.39-.54,1.22,1.22,0,0,0-.61-.14,1,1,0,0,0-.62.18,1.28,1.28,0,0,0-.38.63,5.69,5.69,0,0,0-.19,1.17c0,.5-.05,1.1-.05,1.83v1.23C381.58,22.35,381.59,22.94,381.63,23.39Z"></path><path class="cls-1" d="M389.8,26a6.9,6.9,0,0,1-.09,1.13,2.58,2.58,0,0,1-.33.92,1.74,1.74,0,0,1-.65.64,2.5,2.5,0,0,1-1,.32V27.9a.92.92,0,0,0,.62-.45,1.64,1.64,0,0,0,.21-.82v-.21h-.83V23.93h2.11Z"></path><path class="cls-1" d="M391.19,18.87a6.22,6.22,0,0,1,.43-1.93,3.08,3.08,0,0,1,1.07-1.34,3.32,3.32,0,0,1,2-.5,4.26,4.26,0,0,1,1.72.29,2.39,2.39,0,0,1,1.09.95,4.64,4.64,0,0,1,.58,1.71,16.82,16.82,0,0,1,.16,2.55c0,.79,0,1.55-.08,2.27a5.89,5.89,0,0,1-.43,1.93,2.89,2.89,0,0,1-1.06,1.32,3.51,3.51,0,0,1-2,.48,4.72,4.72,0,0,1-1.71-.27,2.26,2.26,0,0,1-1.1-.93,4.65,4.65,0,0,1-.57-1.7,16.73,16.73,0,0,1-.17-2.56C391.11,20.35,391.14,19.6,391.19,18.87Zm2.28,4.52a4.08,4.08,0,0,0,.2,1.07,1,1,0,0,0,.39.54,1.09,1.09,0,0,0,.6.14,1,1,0,0,0,.63-.18,1.19,1.19,0,0,0,.37-.62,5.27,5.27,0,0,0,.19-1.18c0-.49.06-1.1.06-1.82V20.1c0-.71,0-1.29-.06-1.75a3.77,3.77,0,0,0-.2-1.07,1,1,0,0,0-.38-.54,1.22,1.22,0,0,0-.61-.14,1,1,0,0,0-.62.18,1.28,1.28,0,0,0-.38.63,5.69,5.69,0,0,0-.19,1.17c0,.5-.06,1.1-.06,1.83v1.23C393.41,22.35,393.43,22.94,393.47,23.39Z"></path><path class="cls-1" d="M399,18.87a6.22,6.22,0,0,1,.43-1.93,3.08,3.08,0,0,1,1.07-1.34,3.32,3.32,0,0,1,2-.5,4.26,4.26,0,0,1,1.72.29,2.39,2.39,0,0,1,1.09.95,4.83,4.83,0,0,1,.58,1.71,16.82,16.82,0,0,1,.16,2.55c0,.79,0,1.55-.08,2.27a5.89,5.89,0,0,1-.43,1.93,2.89,2.89,0,0,1-1.06,1.32,3.51,3.51,0,0,1-2,.48,4.72,4.72,0,0,1-1.71-.27,2.26,2.26,0,0,1-1.1-.93,4.65,4.65,0,0,1-.57-1.7,16.73,16.73,0,0,1-.17-2.56C399,20.35,399,19.6,399,18.87Zm2.28,4.52a4.08,4.08,0,0,0,.2,1.07,1,1,0,0,0,.38.54,1.15,1.15,0,0,0,.61.14,1,1,0,0,0,.63-.18,1.19,1.19,0,0,0,.37-.62,5.27,5.27,0,0,0,.19-1.18c0-.49.06-1.1.06-1.82V20.1c0-.71,0-1.29-.06-1.75a3.77,3.77,0,0,0-.2-1.07,1,1,0,0,0-.38-.54,1.22,1.22,0,0,0-.61-.14,1,1,0,0,0-.62.18,1.28,1.28,0,0,0-.38.63,5.69,5.69,0,0,0-.19,1.17c0,.5-.06,1.1-.06,1.83v1.23C401.25,22.35,401.27,22.94,401.31,23.39Z"></path><path class="cls-1" d="M406.87,18.87a6.22,6.22,0,0,1,.43-1.93,3.08,3.08,0,0,1,1.07-1.34,3.32,3.32,0,0,1,2-.5,4.26,4.26,0,0,1,1.72.29,2.39,2.39,0,0,1,1.09.95,4.83,4.83,0,0,1,.58,1.71,16.82,16.82,0,0,1,.16,2.55c0,.79,0,1.55-.08,2.27a5.89,5.89,0,0,1-.43,1.93,2.89,2.89,0,0,1-1.06,1.32,3.51,3.51,0,0,1-2,.48,4.72,4.72,0,0,1-1.71-.27,2.26,2.26,0,0,1-1.1-.93,4.65,4.65,0,0,1-.57-1.7,16.73,16.73,0,0,1-.17-2.56C406.79,20.35,406.82,19.6,406.87,18.87Zm2.28,4.52a4.08,4.08,0,0,0,.2,1.07,1,1,0,0,0,.38.54,1.15,1.15,0,0,0,.61.14A1,1,0,0,0,411,25a1.19,1.19,0,0,0,.37-.62,5.27,5.27,0,0,0,.19-1.18c0-.49.06-1.1.06-1.82V20.1c0-.71,0-1.29-.06-1.75a3.77,3.77,0,0,0-.2-1.07,1,1,0,0,0-.38-.54,1.22,1.22,0,0,0-.61-.14,1,1,0,0,0-.62.18,1.28,1.28,0,0,0-.38.63,5.69,5.69,0,0,0-.19,1.17c0,.5-.06,1.1-.06,1.83v1.23C409.09,22.35,409.11,22.94,409.15,23.39Z"></path><path class="cls-1" d="M19.65,38.25A3,3,0,0,1,19.89,37a2.09,2.09,0,0,1,.65-.81,2.51,2.51,0,0,1,1-.45,4.87,4.87,0,0,1,1.17-.14,5.73,5.73,0,0,1,1.6.19,2.19,2.19,0,0,1,.95.55,1.81,1.81,0,0,1,.45.84,4.41,4.41,0,0,1,.12,1.06v4.53a5.57,5.57,0,0,0,.06.94,3.05,3.05,0,0,0,.21.72H24a1.92,1.92,0,0,1-.17-.44c0-.15-.07-.3-.1-.45h0a1.85,1.85,0,0,1-.89.87,3.66,3.66,0,0,1-1.3.2,2.22,2.22,0,0,1-1-.2,1.64,1.64,0,0,1-.64-.55,2.45,2.45,0,0,1-.35-.79,3.37,3.37,0,0,1-.11-.88,4,4,0,0,1,.12-1,2.18,2.18,0,0,1,.39-.76,2.4,2.4,0,0,1,.68-.52,5.49,5.49,0,0,1,1-.36l1.25-.34a1.31,1.31,0,0,0,.69-.35,1,1,0,0,0,.19-.66,1.18,1.18,0,0,0-.23-.77,1,1,0,0,0-.79-.28,1,1,0,0,0-.77.3,1.22,1.22,0,0,0-.26.82v.24h-2ZM23.2,40.4a3,3,0,0,1-.46.15,1.73,1.73,0,0,0-1,.48,1.33,1.33,0,0,0-.29.91,1.72,1.72,0,0,0,.19.85.66.66,0,0,0,.64.35,1.51,1.51,0,0,0,.46-.07,1.24,1.24,0,0,0,.44-.23,1.07,1.07,0,0,0,.33-.42,1.26,1.26,0,0,0,.13-.6v-1.7A1.94,1.94,0,0,1,23.2,40.4Z"></path><path class="cls-1" d="M29.63,35.82v1h0a2.29,2.29,0,0,1,.92-.93,2.62,2.62,0,0,1,1.27-.3,2.17,2.17,0,0,1,1.63.58A2.58,2.58,0,0,1,34.05,38v6.38H31.84V38.49a1.56,1.56,0,0,0-.22-.94.92.92,0,0,0-.73-.26c-.77,0-1.16.47-1.16,1.42v5.71H27.52v-8.6Z"></path><path class="cls-1" d="M40.06,43.51a2.17,2.17,0,0,1-.82.85,2.39,2.39,0,0,1-1.13.24,2.19,2.19,0,0,1-2-1,6.83,6.83,0,0,1-.64-3.44,7,7,0,0,1,.64-3.46,2.17,2.17,0,0,1,2-1.07,2.06,2.06,0,0,1,1.06.26,2.42,2.42,0,0,1,.8.77h0V33h2.21V44.42H40.09v-.91Zm-2.17-1.27a1,1,0,0,0,1.89,0A7.5,7.5,0,0,0,40,40.12,7.55,7.55,0,0,0,39.78,38a1,1,0,0,0-1.89,0,8,8,0,0,0-.21,2.12A8,8,0,0,0,37.89,42.24Z"></path><path class="cls-1" d="M50.05,33v3.62h0a2.4,2.4,0,0,1,.79-.77,2.09,2.09,0,0,1,1.07-.26,2.18,2.18,0,0,1,2,1.07,7.09,7.09,0,0,1,.64,3.46,6.94,6.94,0,0,1-.64,3.44,2.2,2.2,0,0,1-2,1,2.39,2.39,0,0,1-1.13-.24,2.19,2.19,0,0,1-.83-.85h0v.91H47.84V33Zm.21,9.24a.92.92,0,0,0,1,.71.91.91,0,0,0,.94-.71,7.9,7.9,0,0,0,.22-2.12A8,8,0,0,0,52.15,38a.91.91,0,0,0-.94-.71.92.92,0,0,0-1,.71,8,8,0,0,0-.21,2.12A8,8,0,0,0,50.26,42.24Z"></path><path class="cls-1" d="M56,38.25A3,3,0,0,1,56.22,37a2.18,2.18,0,0,1,.65-.81,2.51,2.51,0,0,1,1-.45A5,5,0,0,1,59,35.59a5.78,5.78,0,0,1,1.6.19,2.15,2.15,0,0,1,.94.55,1.82,1.82,0,0,1,.46.84,4.41,4.41,0,0,1,.12,1.06v4.53a5.78,5.78,0,0,0,0,.94,3.1,3.1,0,0,0,.22.72H60.29a1.55,1.55,0,0,1-.17-.44c0-.15-.07-.3-.11-.45h0a1.81,1.81,0,0,1-.89.87,3.62,3.62,0,0,1-1.3.2,2.25,2.25,0,0,1-1-.2,1.71,1.71,0,0,1-.64-.55,2.68,2.68,0,0,1-.35-.79,3.85,3.85,0,0,1-.11-.88,3.56,3.56,0,0,1,.13-1,1.89,1.89,0,0,1,.39-.76,2.35,2.35,0,0,1,.67-.52,5.33,5.33,0,0,1,1-.36l1.24-.34a1.27,1.27,0,0,0,.69-.35,1,1,0,0,0,.19-.66,1.13,1.13,0,0,0-.23-.77,1.19,1.19,0,0,0-1.56,0,1.22,1.22,0,0,0-.25.82v.24H56Zm3.55,2.15a2.71,2.71,0,0,1-.46.15,1.73,1.73,0,0,0-1,.48,1.38,1.38,0,0,0-.29.91,1.84,1.84,0,0,0,.19.85.67.67,0,0,0,.64.35,1.58,1.58,0,0,0,.47-.07,1.24,1.24,0,0,0,.44-.23,1.28,1.28,0,0,0,.33-.42,1.4,1.4,0,0,0,.12-.6v-1.7A1.64,1.64,0,0,1,59.53,40.4Z"></path><path class="cls-1" d="M68,38.3a2.29,2.29,0,0,0-.15-.56,1,1,0,0,0-.29-.4.81.81,0,0,0-.51-.15,1.05,1.05,0,0,0-.66.19,1,1,0,0,0-.38.54,3.4,3.4,0,0,0-.18.91c0,.37-.05.81-.05,1.31s0,1,.05,1.36a3.65,3.65,0,0,0,.18.94,1,1,0,0,0,.36.54,1,1,0,0,0,.6.16.85.85,0,0,0,.81-.48A3.42,3.42,0,0,0,68,41.13h2.11a3.84,3.84,0,0,1-.76,2.58,3.17,3.17,0,0,1-2.52.89,4.84,4.84,0,0,1-1.45-.2,2,2,0,0,1-1-.72,3.65,3.65,0,0,1-.62-1.39,9.48,9.48,0,0,1-.21-2.17,7.94,7.94,0,0,1,.26-2.2,3.51,3.51,0,0,1,.72-1.39,2.51,2.51,0,0,1,1.1-.73A4.53,4.53,0,0,1,67,35.59a2.86,2.86,0,0,1,2.31.9,3.58,3.58,0,0,1,.78,2.43H68A4.21,4.21,0,0,0,68,38.3Z"></path><path class="cls-1" d="M73.71,39h0L76,35.82H78.4l-2.48,3.39,2.85,5.21H76.33L74.5,40.89l-.79,1v2.51H71.5V33h2.21Z"></path><path class="cls-1" d="M81.47,41.14a4.56,4.56,0,0,0,.06.75,2.08,2.08,0,0,0,.18.64,1.41,1.41,0,0,0,.34.45.8.8,0,0,0,.51.16.88.88,0,0,0,.81-.4,2.85,2.85,0,0,0,.36-1.21h2a3.46,3.46,0,0,1-.8,2.29,3.05,3.05,0,0,1-2.32.78,3.63,3.63,0,0,1-1.87-.4,2.46,2.46,0,0,1-1-1.06,4,4,0,0,1-.4-1.47c0-.54-.07-1.09-.07-1.63a11.08,11.08,0,0,1,.12-1.66A4,4,0,0,1,79.86,37a2.73,2.73,0,0,1,1-1,3.71,3.71,0,0,1,1.8-.37,3.56,3.56,0,0,1,1.57.31,2.43,2.43,0,0,1,1,.88,3.69,3.69,0,0,1,.48,1.38,11,11,0,0,1,.13,1.8v.5H81.47Zm2.19-2.87a2.21,2.21,0,0,0-.17-.64.94.94,0,0,0-.33-.4,1,1,0,0,0-.55-.13,1,1,0,0,0-.56.15,1.12,1.12,0,0,0-.34.4,1.62,1.62,0,0,0-.18.55,3.15,3.15,0,0,0-.06.61v.33h2.26C83.72,38.81,83.69,38.52,83.66,38.27Z"></path><path class="cls-1" d="M91.54,43.51a2.19,2.19,0,0,1-.83.85,2.39,2.39,0,0,1-1.13.24,2.2,2.2,0,0,1-2-1,6.94,6.94,0,0,1-.64-3.44,7.09,7.09,0,0,1,.64-3.46,2.18,2.18,0,0,1,2-1.07,2.12,2.12,0,0,1,1.07.26,2.5,2.5,0,0,1,.79.77h0V33h2.21V44.42H91.57v-.91Zm-2.17-1.27a.9.9,0,0,0,.93.71.91.91,0,0,0,1-.71,7.5,7.5,0,0,0,.22-2.12A7.55,7.55,0,0,0,91.25,38a.91.91,0,0,0-1-.71.9.9,0,0,0-.93.71,7.55,7.55,0,0,0-.22,2.12A7.5,7.5,0,0,0,89.37,42.24Z"></path><path class="cls-1" d="M101.52,33v3.62h0a2.5,2.5,0,0,1,.79-.77,2.12,2.12,0,0,1,1.07-.26,2.18,2.18,0,0,1,2,1.07,7.09,7.09,0,0,1,.64,3.46,6.94,6.94,0,0,1-.64,3.44,2.2,2.2,0,0,1-2,1,2.39,2.39,0,0,1-1.13-.24,2.19,2.19,0,0,1-.83-.85h0v.91H99.31V33Zm.21,9.24a.93.93,0,0,0,1,.71.9.9,0,0,0,.93-.71,7.5,7.5,0,0,0,.22-2.12,7.55,7.55,0,0,0-.22-2.12.9.9,0,0,0-.93-.71.93.93,0,0,0-1,.71,8,8,0,0,0-.21,2.12A8,8,0,0,0,101.73,42.24Z"></path><path class="cls-1" d="M108.05,45.59a1.06,1.06,0,0,0,.87-.32,1.52,1.52,0,0,0,.31-.85l-2.42-8.6h2.31l1.28,6h0l1.12-6h2.21l-2.08,8a17.31,17.31,0,0,1-.55,1.73,3,3,0,0,1-.63,1,1.66,1.66,0,0,1-.86.47,6.37,6.37,0,0,1-1.27.11h-.9V45.54A2.78,2.78,0,0,0,108.05,45.59Z"></path><path class="cls-1" d="M121.42,33.35v2.47h1.28v1.5h-1.28V42a1.29,1.29,0,0,0,.15.72.75.75,0,0,0,.64.22h.25l.24,0v1.53c-.24,0-.48,0-.71,0l-.73,0a5.13,5.13,0,0,1-1.05-.09,1,1,0,0,1-.62-.35,1.62,1.62,0,0,1-.3-.69,6.49,6.49,0,0,1-.08-1.09V37.32h-1.12v-1.5h1.12V33.35Z"></path><path class="cls-1" d="M125.84,33v3.7h0a2.24,2.24,0,0,1,2.1-1.11,2.16,2.16,0,0,1,1.62.58,2.58,2.58,0,0,1,.57,1.87v6.38H128V38.49a1.49,1.49,0,0,0-.22-.94.92.92,0,0,0-.72-.26c-.78,0-1.17.47-1.17,1.42v5.71h-2.21V33Z"></path><path class="cls-1" d="M133.68,41.14a6,6,0,0,0,0,.75,2.4,2.4,0,0,0,.19.64,1.38,1.38,0,0,0,.33.45.81.81,0,0,0,.52.16.88.88,0,0,0,.81-.4,2.86,2.86,0,0,0,.35-1.21h2a3.46,3.46,0,0,1-.8,2.29,3.07,3.07,0,0,1-2.32.78,3.61,3.61,0,0,1-1.87-.4,2.55,2.55,0,0,1-1-1.06,4.19,4.19,0,0,1-.39-1.47c0-.54-.07-1.09-.07-1.63a11.08,11.08,0,0,1,.12-1.66,4,4,0,0,1,.48-1.43,2.66,2.66,0,0,1,1-1,3.69,3.69,0,0,1,1.79-.37,3.61,3.61,0,0,1,1.58.31,2.5,2.5,0,0,1,1,.88,3.87,3.87,0,0,1,.48,1.38,12.27,12.27,0,0,1,.13,1.8v.5h-4.37Zm2.19-2.87a2.21,2.21,0,0,0-.17-.64.94.94,0,0,0-.33-.4,1.06,1.06,0,0,0-.56-.13,1,1,0,0,0-.55.15,1,1,0,0,0-.34.4,1.88,1.88,0,0,0-.19.55,4.18,4.18,0,0,0,0,.61v.33h2.25Q135.91,38.65,135.87,38.27Z"></path><path class="cls-1" d="M142.72,37.32v-1.5h1.12v-1a2.61,2.61,0,0,1,.16-1,1.58,1.58,0,0,1,.45-.64,1.83,1.83,0,0,1,.73-.34,4.1,4.1,0,0,1,1-.1c.4,0,.79,0,1.19,0v1.57h-.44a1,1,0,0,0-.65.16.62.62,0,0,0-.19.52v.76h1.28v1.5h-1.28v7.1h-2.21v-7.1Z"></path><path class="cls-1" d="M152.64,43.42a2.16,2.16,0,0,1-.91.91,2.93,2.93,0,0,1-1.28.27,2.23,2.23,0,0,1-1.63-.55,2.51,2.51,0,0,1-.57-1.85V35.82h2.21v5.93a1.48,1.48,0,0,0,.23.94.89.89,0,0,0,.72.26c.77,0,1.16-.47,1.16-1.42V35.82h2.21v8.6h-2.11v-1Z"></path><path class="cls-1" d="M158.7,33V44.42h-2.21V33Z"></path><path class="cls-1" d="M162.7,33V44.42h-2.21V33Z"></path><path class="cls-1" d="M167.77,37.32v-1.5h1.12v-1a2.83,2.83,0,0,1,.16-1,1.6,1.6,0,0,1,.46-.64,1.83,1.83,0,0,1,.73-.34,4.1,4.1,0,0,1,1-.1c.39,0,.79,0,1.18,0v1.57H172a1,1,0,0,0-.66.16.66.66,0,0,0-.19.52v.76h1.28v1.5H171.1v7.1h-2.21v-7.1Z"></path><path class="cls-1" d="M173.29,38.25a3,3,0,0,1,.24-1.26,2.18,2.18,0,0,1,.65-.81,2.51,2.51,0,0,1,1-.45,5,5,0,0,1,1.18-.14,5.78,5.78,0,0,1,1.6.19,2.15,2.15,0,0,1,.94.55,1.82,1.82,0,0,1,.46.84,4.41,4.41,0,0,1,.12,1.06v4.53a7.22,7.22,0,0,0,.05.94,3.1,3.1,0,0,0,.22.72H177.6a1.55,1.55,0,0,1-.17-.44c0-.15-.07-.3-.11-.45h0a1.81,1.81,0,0,1-.89.87,3.62,3.62,0,0,1-1.3.2,2.25,2.25,0,0,1-1-.2,1.71,1.71,0,0,1-.64-.55,2.68,2.68,0,0,1-.35-.79,3.85,3.85,0,0,1-.11-.88,3.56,3.56,0,0,1,.13-1,1.89,1.89,0,0,1,.39-.76,2.35,2.35,0,0,1,.67-.52,5.33,5.33,0,0,1,1-.36l1.24-.34a1.27,1.27,0,0,0,.69-.35,1,1,0,0,0,.19-.66,1.13,1.13,0,0,0-.23-.77,1.19,1.19,0,0,0-1.56,0,1.22,1.22,0,0,0-.25.82v.24h-2Zm3.55,2.15a2.71,2.71,0,0,1-.46.15,1.73,1.73,0,0,0-1,.48,1.38,1.38,0,0,0-.29.91,1.84,1.84,0,0,0,.19.85.67.67,0,0,0,.64.35,1.58,1.58,0,0,0,.47-.07,1.24,1.24,0,0,0,.44-.23,1.28,1.28,0,0,0,.33-.42,1.4,1.4,0,0,0,.12-.6v-1.7A1.64,1.64,0,0,1,176.84,40.4Z"></path><path class="cls-1" d="M183.45,32.87v1.89h-2.21V32.87Zm0,3v8.6h-2.21v-8.6Z"></path><path class="cls-1" d="M187.85,33.35v2.47h1.28v1.5h-1.28V42a1.29,1.29,0,0,0,.15.72.75.75,0,0,0,.64.22h.25l.24,0v1.53c-.24,0-.48,0-.71,0l-.73,0a5.13,5.13,0,0,1-1.05-.09A1,1,0,0,1,186,44a1.62,1.62,0,0,1-.3-.69,6.49,6.49,0,0,1-.08-1.09V37.32h-1.12v-1.5h1.12V33.35Z"></path><path class="cls-1" d="M192.27,33v3.7h0a2.24,2.24,0,0,1,2.1-1.11,2.16,2.16,0,0,1,1.62.58,2.58,2.58,0,0,1,.57,1.87v6.38h-2.21V38.49a1.49,1.49,0,0,0-.22-.94.92.92,0,0,0-.72-.26c-.78,0-1.17.47-1.17,1.42v5.71h-2.21V33Z"></path><path class="cls-1" d="M202.2,38.25a3,3,0,0,1,.24-1.26,2.18,2.18,0,0,1,.65-.81,2.51,2.51,0,0,1,1-.45,5,5,0,0,1,1.18-.14,5.78,5.78,0,0,1,1.6.19,2.15,2.15,0,0,1,.94.55,1.74,1.74,0,0,1,.46.84,4.41,4.41,0,0,1,.12,1.06v4.53a7.22,7.22,0,0,0,.05.94,3.1,3.1,0,0,0,.22.72h-2.11a1.55,1.55,0,0,1-.17-.44c0-.15-.07-.3-.1-.45h0a1.83,1.83,0,0,1-.88.87,3.68,3.68,0,0,1-1.31.2,2.18,2.18,0,0,1-1-.2,1.64,1.64,0,0,1-.64-.55,2.7,2.7,0,0,1-.36-.79,3.85,3.85,0,0,1-.11-.88,3.93,3.93,0,0,1,.13-1,2.18,2.18,0,0,1,.39-.76,2.35,2.35,0,0,1,.67-.52,5.61,5.61,0,0,1,1-.36l1.25-.34a1.23,1.23,0,0,0,.68-.35,1,1,0,0,0,.2-.66,1.13,1.13,0,0,0-.24-.77,1,1,0,0,0-.79-.28,1,1,0,0,0-.77.3,1.22,1.22,0,0,0-.25.82v.24h-2Zm3.56,2.15a2.79,2.79,0,0,1-.47.15,1.73,1.73,0,0,0-1,.48,1.38,1.38,0,0,0-.29.91,1.72,1.72,0,0,0,.2.85.65.65,0,0,0,.64.35,1.51,1.51,0,0,0,.46-.07,1.24,1.24,0,0,0,.44-.23,1.28,1.28,0,0,0,.33-.42,1.4,1.4,0,0,0,.13-.6v-1.7A1.94,1.94,0,0,1,205.76,40.4Z"></path><path class="cls-1" d="M212.19,35.82v1h0a2.27,2.27,0,0,1,.91-.93,2.66,2.66,0,0,1,1.28-.3,2.17,2.17,0,0,1,1.63.58A2.63,2.63,0,0,1,216.6,38v6.38h-2.2V38.49a1.48,1.48,0,0,0-.23-.94.92.92,0,0,0-.72-.26c-.78,0-1.17.47-1.17,1.42v5.71h-2.2v-8.6Z"></path><path class="cls-1" d="M222.62,43.51a2.24,2.24,0,0,1-.82.85,2.42,2.42,0,0,1-1.13.24,2.18,2.18,0,0,1-2-1,6.83,6.83,0,0,1-.64-3.44,7,7,0,0,1,.64-3.46,2.16,2.16,0,0,1,2-1.07,2.08,2.08,0,0,1,1.06.26,2.31,2.31,0,0,1,.79.77h0V33h2.2V44.42h-2.11v-.91Zm-2.17-1.27a1,1,0,0,0,1.89,0,7.9,7.9,0,0,0,.22-2.12,8,8,0,0,0-.22-2.12,1,1,0,0,0-1.89,0,8,8,0,0,0-.21,2.12A8,8,0,0,0,220.45,42.24Z"></path><path class="cls-1" d="M234.5,38.3a2.86,2.86,0,0,0-.14-.56,1.08,1.08,0,0,0-.3-.4.81.81,0,0,0-.51-.15,1.05,1.05,0,0,0-.66.19,1,1,0,0,0-.38.54,3.4,3.4,0,0,0-.18.91c0,.37-.05.81-.05,1.31s0,1,.05,1.36a3.65,3.65,0,0,0,.18.94,1,1,0,0,0,.36.54,1,1,0,0,0,.6.16.85.85,0,0,0,.81-.48,3.42,3.42,0,0,0,.26-1.53h2.11a3.84,3.84,0,0,1-.76,2.58,3.17,3.17,0,0,1-2.52.89,4.84,4.84,0,0,1-1.45-.2,2,2,0,0,1-1-.72,3.65,3.65,0,0,1-.62-1.39,9.54,9.54,0,0,1-.2-2.17,8,8,0,0,1,.25-2.2,3.51,3.51,0,0,1,.72-1.39,2.48,2.48,0,0,1,1.11-.73,4.42,4.42,0,0,1,1.4-.21,2.9,2.9,0,0,1,2.32.9,3.63,3.63,0,0,1,.77,2.43h-2.11A4.21,4.21,0,0,0,234.5,38.3Z"></path><path class="cls-1" d="M240.08,35.82V37h0a3,3,0,0,1,.81-1,1.85,1.85,0,0,1,1.17-.38h.2l.2,0v2.12l-.34,0h-.35a2.24,2.24,0,0,0-.57.08,1.77,1.77,0,0,0-.53.27,1.21,1.21,0,0,0-.38.48,1.61,1.61,0,0,0-.15.73v5.16H238v-8.6Z"></path><path class="cls-1" d="M245.34,41.14a4.56,4.56,0,0,0,.06.75,2.08,2.08,0,0,0,.18.64,1.41,1.41,0,0,0,.34.45.78.78,0,0,0,.51.16.88.88,0,0,0,.81-.4,3,3,0,0,0,.36-1.21h2a3.46,3.46,0,0,1-.8,2.29,3.05,3.05,0,0,1-2.32.78,3.63,3.63,0,0,1-1.87-.4,2.46,2.46,0,0,1-1-1.06,4,4,0,0,1-.4-1.47c0-.54-.07-1.09-.07-1.63a11.08,11.08,0,0,1,.12-1.66,4,4,0,0,1,.48-1.43,2.73,2.73,0,0,1,1-1,3.71,3.71,0,0,1,1.8-.37,3.56,3.56,0,0,1,1.57.31,2.43,2.43,0,0,1,1,.88,3.87,3.87,0,0,1,.48,1.38,11,11,0,0,1,.13,1.8v.5h-4.37Zm2.19-2.87a2.21,2.21,0,0,0-.17-.64.94.94,0,0,0-.33-.4,1,1,0,0,0-.55-.13,1,1,0,0,0-.56.15,1.12,1.12,0,0,0-.34.4,1.62,1.62,0,0,0-.18.55,3.15,3.15,0,0,0-.06.61v.33h2.26C247.58,38.81,247.56,38.52,247.53,38.27Z"></path><path class="cls-1" d="M255.4,43.51a2.17,2.17,0,0,1-.82.85,2.39,2.39,0,0,1-1.13.24,2.2,2.2,0,0,1-2-1,6.83,6.83,0,0,1-.64-3.44,7,7,0,0,1,.64-3.46,2.18,2.18,0,0,1,2-1.07,2.12,2.12,0,0,1,1.07.26,2.5,2.5,0,0,1,.79.77h0V33h2.21V44.42h-2.11v-.91Zm-2.16-1.27a.9.9,0,0,0,.93.71.91.91,0,0,0,1-.71,7.5,7.5,0,0,0,.22-2.12,7.55,7.55,0,0,0-.22-2.12.91.91,0,0,0-1-.71.9.9,0,0,0-.93.71,7.55,7.55,0,0,0-.22,2.12A7.5,7.5,0,0,0,253.24,42.24Z"></path><path class="cls-1" d="M261.47,32.87v1.89h-2.21V32.87Zm0,3v8.6h-2.21v-8.6Z"></path><path class="cls-1" d="M265.87,33.35v2.47h1.28v1.5h-1.28V42a1.29,1.29,0,0,0,.15.72c.1.15.31.22.63.22h.26l.24,0v1.53c-.25,0-.48,0-.71,0l-.73,0a5,5,0,0,1-1-.09A1,1,0,0,1,264,44a1.41,1.41,0,0,1-.3-.69,6.49,6.49,0,0,1-.08-1.09V37.32h-1.12v-1.5h1.12V33.35Z"></path><path class="cls-1" d="M272,38.17a3.75,3.75,0,0,1,.58-1.42,2.6,2.6,0,0,1,1-.86,3.76,3.76,0,0,1,1.59-.3,4,4,0,0,1,1.65.27,2.34,2.34,0,0,1,1,.85,4,4,0,0,1,.54,1.43,10.43,10.43,0,0,1,.16,2,9.38,9.38,0,0,1-.18,2,3.59,3.59,0,0,1-.57,1.42,2.4,2.4,0,0,1-1.05.84,4.13,4.13,0,0,1-1.59.27,4.22,4.22,0,0,1-1.65-.25,2.19,2.19,0,0,1-1-.83A3.73,3.73,0,0,1,272,42.1a10.58,10.58,0,0,1-.16-2A10.18,10.18,0,0,1,272,38.17ZM274,41.34a4.21,4.21,0,0,0,.15,1,1.4,1.4,0,0,0,.36.62.89.89,0,0,0,.64.22.93.93,0,0,0,.93-.7,7.51,7.51,0,0,0,.25-2.32,7.51,7.51,0,0,0-.25-2.32.93.93,0,0,0-.93-.7.89.89,0,0,0-.64.22,1.4,1.4,0,0,0-.36.62,4.21,4.21,0,0,0-.15,1c0,.38,0,.78,0,1.22S274,41,274,41.34Z"></path><path class="cls-1" d="M279.27,37.32v-1.5h1.12v-1a2.83,2.83,0,0,1,.16-1,1.6,1.6,0,0,1,.46-.64,1.83,1.83,0,0,1,.73-.34,4.1,4.1,0,0,1,1-.1c.39,0,.79,0,1.18,0v1.57h-.43a1,1,0,0,0-.66.16.66.66,0,0,0-.19.52v.76h1.28v1.5H282.6v7.1h-2.21v-7.1Z"></path><path class="cls-1" d="M291.5,33.35v2.47h1.28v1.5H291.5V42a1.29,1.29,0,0,0,.15.72c.1.15.31.22.63.22h.26l.24,0v1.53c-.25,0-.48,0-.71,0l-.73,0a5,5,0,0,1-1-.09,1,1,0,0,1-.62-.35,1.41,1.41,0,0,1-.3-.69,6.49,6.49,0,0,1-.08-1.09V37.32h-1.12v-1.5h1.12V33.35Z"></path><path class="cls-1" d="M295.92,33v3.7h0A2.22,2.22,0,0,1,298,35.59a2.17,2.17,0,0,1,1.63.58,2.58,2.58,0,0,1,.56,1.87v6.38H298V38.49a1.48,1.48,0,0,0-.23-.94.92.92,0,0,0-.72-.26c-.78,0-1.16.47-1.16,1.42v5.71h-2.21V33Z"></path><path class="cls-1" d="M303.76,41.14a4.57,4.57,0,0,0,.05.75,2.4,2.4,0,0,0,.19.64,1.25,1.25,0,0,0,.33.45.8.8,0,0,0,.51.16.89.89,0,0,0,.82-.4,2.86,2.86,0,0,0,.35-1.21h2a3.52,3.52,0,0,1-.8,2.29,3.08,3.08,0,0,1-2.32.78,3.67,3.67,0,0,1-1.88-.4,2.52,2.52,0,0,1-1-1.06,4.19,4.19,0,0,1-.39-1.47c-.05-.54-.07-1.09-.07-1.63a11.08,11.08,0,0,1,.12-1.66,4,4,0,0,1,.48-1.43,2.66,2.66,0,0,1,1-1,3.67,3.67,0,0,1,1.79-.37,3.61,3.61,0,0,1,1.58.31,2.5,2.5,0,0,1,1,.88,3.87,3.87,0,0,1,.48,1.38,12.34,12.34,0,0,1,.12,1.8v.5h-4.36ZM306,38.27a2.21,2.21,0,0,0-.17-.64.89.89,0,0,0-.34-.4,1,1,0,0,0-.55-.13.94.94,0,0,0-.55.15,1,1,0,0,0-.34.4,1.88,1.88,0,0,0-.19.55,3.14,3.14,0,0,0-.05.61v.33H306Q306,38.65,306,38.27Z"></path><path class="cls-1" d="M315.66,41a6.3,6.3,0,0,0,0,.79,1.81,1.81,0,0,0,.21.62,1.06,1.06,0,0,0,.42.42A1.34,1.34,0,0,0,317,43a1.3,1.3,0,0,0,.67-.15,1,1,0,0,0,.41-.42,1.81,1.81,0,0,0,.21-.62,4.79,4.79,0,0,0,.06-.79V33h2.3v8a4.7,4.7,0,0,1-.3,1.8,3,3,0,0,1-.82,1.13,2.89,2.89,0,0,1-1.17.56,6.67,6.67,0,0,1-1.36.14,6.75,6.75,0,0,1-1.36-.13,2.72,2.72,0,0,1-1.16-.52,2.57,2.57,0,0,1-.82-1.11,4.89,4.89,0,0,1-.31-1.87V33h2.31Z"></path><path class="cls-1" d="M324.31,35.82v1h0a2.27,2.27,0,0,1,.91-.93,2.66,2.66,0,0,1,1.28-.3,2.16,2.16,0,0,1,1.62.58,2.58,2.58,0,0,1,.57,1.87v6.38h-2.21V38.49a1.49,1.49,0,0,0-.22-.94.92.92,0,0,0-.72-.26c-.78,0-1.17.47-1.17,1.42v5.71H322.2v-8.6Z"></path><path class="cls-1" d="M332.65,32.87v1.89h-2.21V32.87Zm0,3v8.6h-2.21v-8.6Z"></path><path class="cls-1" d="M337.05,33.35v2.47h1.28v1.5h-1.28V42a1.29,1.29,0,0,0,.15.72c.1.15.31.22.63.22h.26l.24,0v1.53c-.24,0-.48,0-.71,0l-.73,0a5,5,0,0,1-1.05-.09,1,1,0,0,1-.62-.35,1.51,1.51,0,0,1-.3-.69,6.49,6.49,0,0,1-.08-1.09V37.32h-1.12v-1.5h1.12V33.35Z"></path><path class="cls-1" d="M341.15,41.14a6,6,0,0,0,.05.75,2.4,2.4,0,0,0,.19.64,1.25,1.25,0,0,0,.33.45.8.8,0,0,0,.51.16.89.89,0,0,0,.82-.4,2.86,2.86,0,0,0,.35-1.21h2a3.52,3.52,0,0,1-.8,2.29,3.07,3.07,0,0,1-2.32.78,3.67,3.67,0,0,1-1.88-.4,2.58,2.58,0,0,1-1-1.06,4.19,4.19,0,0,1-.39-1.47c-.05-.54-.07-1.09-.07-1.63a11.08,11.08,0,0,1,.12-1.66,4,4,0,0,1,.48-1.43,2.66,2.66,0,0,1,1-1,3.69,3.69,0,0,1,1.79-.37,3.61,3.61,0,0,1,1.58.31,2.5,2.5,0,0,1,1,.88,3.87,3.87,0,0,1,.48,1.38,12.27,12.27,0,0,1,.13,1.8v.5h-4.37Zm2.19-2.87a2.21,2.21,0,0,0-.17-.64.89.89,0,0,0-.34-.4,1,1,0,0,0-.55-.13.94.94,0,0,0-.55.15,1,1,0,0,0-.34.4,1.88,1.88,0,0,0-.19.55,4.18,4.18,0,0,0-.05.61v.33h2.25Q343.39,38.65,343.34,38.27Z"></path><path class="cls-1" d="M351.21,43.51a2.17,2.17,0,0,1-.82.85,2.42,2.42,0,0,1-1.13.24,2.19,2.19,0,0,1-2-1,6.83,6.83,0,0,1-.64-3.44,7,7,0,0,1,.64-3.46,2.17,2.17,0,0,1,2-1.07,2.06,2.06,0,0,1,1.06.26,2.42,2.42,0,0,1,.8.77h0V33h2.2V44.42h-2.11v-.91ZM349,42.24a1,1,0,0,0,1.89,0,7.5,7.5,0,0,0,.22-2.12,7.55,7.55,0,0,0-.22-2.12A1,1,0,0,0,349,38a8,8,0,0,0-.21,2.12A8,8,0,0,0,349,42.24Z"></path><path class="cls-1" d="M360.91,41.19a4.07,4.07,0,0,0,.06.73,1.2,1.2,0,0,0,.24.55,1.12,1.12,0,0,0,.47.35,1.83,1.83,0,0,0,.75.13,1.46,1.46,0,0,0,.95-.34,1.31,1.31,0,0,0,.42-1.07,1.91,1.91,0,0,0-.1-.66,1.3,1.3,0,0,0-.35-.5,2.37,2.37,0,0,0-.63-.41,9.42,9.42,0,0,0-1-.38,8.31,8.31,0,0,1-1.32-.56,3.47,3.47,0,0,1-.94-.71,2.62,2.62,0,0,1-.55-.94,3.9,3.9,0,0,1-.18-1.24,3.19,3.19,0,0,1,.95-2.53,3.75,3.75,0,0,1,2.59-.83,5.69,5.69,0,0,1,1.41.16,3,3,0,0,1,1.12.55,2.53,2.53,0,0,1,.74,1,3.3,3.3,0,0,1,.26,1.4v.32h-2.2a2.32,2.32,0,0,0-.29-1.26,1.06,1.06,0,0,0-1-.44,1.67,1.67,0,0,0-.64.11,1.18,1.18,0,0,0-.41.3,1,1,0,0,0-.21.42,2.73,2.73,0,0,0-.05.5,1.66,1.66,0,0,0,.22.89,2,2,0,0,0,1,.66l1.78.77a5.51,5.51,0,0,1,1.07.6,2.78,2.78,0,0,1,.66.67,2.33,2.33,0,0,1,.35.79,4.75,4.75,0,0,1,.09,1,3.15,3.15,0,0,1-1.05,2.64,4.59,4.59,0,0,1-2.92.82,3.8,3.8,0,0,1-2.79-.85,3.29,3.29,0,0,1-.84-2.43v-.46h2.31Z"></path><path class="cls-1" d="M370.14,33.35v2.47h1.28v1.5h-1.28V42a1.29,1.29,0,0,0,.15.72c.1.15.31.22.63.22h.26l.24,0v1.53c-.25,0-.48,0-.71,0l-.73,0a5,5,0,0,1-1.05-.09,1,1,0,0,1-.62-.35,1.41,1.41,0,0,1-.3-.69,6.49,6.49,0,0,1-.08-1.09V37.32h-1.12v-1.5h1.12V33.35Z"></path><path class="cls-1" d="M372.33,38.25a3,3,0,0,1,.24-1.26,2.18,2.18,0,0,1,.65-.81,2.51,2.51,0,0,1,1-.45,4.93,4.93,0,0,1,1.17-.14,5.68,5.68,0,0,1,1.6.19,2.19,2.19,0,0,1,.95.55,1.81,1.81,0,0,1,.45.84,4.41,4.41,0,0,1,.12,1.06v4.53a5.57,5.57,0,0,0,.06.94,3.1,3.1,0,0,0,.22.72h-2.12a1.54,1.54,0,0,1-.16-.44c0-.15-.08-.3-.11-.45h0a1.85,1.85,0,0,1-.89.87,3.62,3.62,0,0,1-1.3.2,2.22,2.22,0,0,1-1-.2,1.64,1.64,0,0,1-.64-.55,2.45,2.45,0,0,1-.35-.79,3.85,3.85,0,0,1-.11-.88,3.56,3.56,0,0,1,.13-1,1.89,1.89,0,0,1,.39-.76,2.22,2.22,0,0,1,.67-.52,5.49,5.49,0,0,1,1-.36l1.25-.34a1.31,1.31,0,0,0,.69-.35,1,1,0,0,0,.19-.66,1.18,1.18,0,0,0-.23-.77,1.19,1.19,0,0,0-1.56,0,1.22,1.22,0,0,0-.26.82v.24h-2Zm3.55,2.15a2.71,2.71,0,0,1-.46.15,1.73,1.73,0,0,0-1,.48,1.38,1.38,0,0,0-.29.91,1.72,1.72,0,0,0,.19.85.66.66,0,0,0,.64.35,1.58,1.58,0,0,0,.47-.07,1.33,1.33,0,0,0,.44-.23,1.14,1.14,0,0,0,.32-.42,1.26,1.26,0,0,0,.13-.6v-1.7A1.94,1.94,0,0,1,375.88,40.4Z"></path><path class="cls-1" d="M382.89,33.35v2.47h1.28v1.5h-1.28V42a1.29,1.29,0,0,0,.15.72c.1.15.31.22.63.22h.26l.24,0v1.53c-.25,0-.48,0-.71,0l-.73,0a5,5,0,0,1-1.05-.09,1,1,0,0,1-.62-.35,1.41,1.41,0,0,1-.3-.69,6.49,6.49,0,0,1-.08-1.09V37.32h-1.12v-1.5h1.12V33.35Z"></path><path class="cls-1" d="M387,41.14a4.57,4.57,0,0,0,.05.75,2.4,2.4,0,0,0,.19.64,1.25,1.25,0,0,0,.33.45.8.8,0,0,0,.51.16.89.89,0,0,0,.82-.4,2.86,2.86,0,0,0,.35-1.21h2a3.52,3.52,0,0,1-.8,2.29,3.07,3.07,0,0,1-2.32.78,3.67,3.67,0,0,1-1.88-.4,2.52,2.52,0,0,1-1-1.06,4.19,4.19,0,0,1-.39-1.47c-.05-.54-.07-1.09-.07-1.63a11.08,11.08,0,0,1,.12-1.66,4,4,0,0,1,.48-1.43,2.66,2.66,0,0,1,1-1,3.67,3.67,0,0,1,1.79-.37,3.61,3.61,0,0,1,1.58.31,2.5,2.5,0,0,1,1,.88,3.87,3.87,0,0,1,.48,1.38,12.34,12.34,0,0,1,.12,1.8v.5H387Zm2.19-2.87a2.21,2.21,0,0,0-.17-.64.89.89,0,0,0-.34-.4,1,1,0,0,0-.55-.13.94.94,0,0,0-.55.15,1,1,0,0,0-.34.4,1.88,1.88,0,0,0-.19.55,3.14,3.14,0,0,0-.05.61v.33h2.25Q389.23,38.65,389.18,38.27Z"></path><path class="cls-1" d="M394.28,41.9a1.32,1.32,0,0,0,.3.9,1.06,1.06,0,0,0,.85.34,1.22,1.22,0,0,0,.82-.25,1,1,0,0,0,.3-.77.79.79,0,0,0-.24-.63,1.77,1.77,0,0,0-.56-.35l-1.55-.56a2.89,2.89,0,0,1-1.37-.9,2.34,2.34,0,0,1-.47-1.5,2.81,2.81,0,0,1,.18-1,2.15,2.15,0,0,1,.56-.82,2.8,2.8,0,0,1,1-.56,4.4,4.4,0,0,1,1.45-.21,3.3,3.3,0,0,1,2.22.64,2.3,2.3,0,0,1,.72,1.81v.35h-2a1.69,1.69,0,0,0-.22-1,.84.84,0,0,0-.76-.31,1.13,1.13,0,0,0-.72.23.79.79,0,0,0-.32.69.93.93,0,0,0,.2.58,1.62,1.62,0,0,0,.76.43l1.33.45a2.89,2.89,0,0,1,1.47.92,2.47,2.47,0,0,1,.44,1.54,2.79,2.79,0,0,1-.24,1.2,2.49,2.49,0,0,1-.67.84,2.71,2.71,0,0,1-1,.48,6.36,6.36,0,0,1-2.83,0,2.2,2.2,0,0,1-1-.52,2,2,0,0,1-.51-.86,4.37,4.37,0,0,1-.14-1.13v-.3h2Z"></path><path class="cls-1" d="M409,35.74a2.09,2.09,0,0,0-.23-.62,1.4,1.4,0,0,0-.41-.46.92.92,0,0,0-.6-.19,1.26,1.26,0,0,0-1.2.93,9.3,9.3,0,0,0-.36,3.07c0,.69,0,1.3.06,1.86a7.15,7.15,0,0,0,.23,1.41,2,2,0,0,0,.48.9,1.09,1.09,0,0,0,.81.31,1.23,1.23,0,0,0,.46-.11,1.56,1.56,0,0,0,.46-.34,1.93,1.93,0,0,0,.36-.56,2.21,2.21,0,0,0,.14-.81V40h-1.52v-1.7h3.73v6.16h-1.7V43.37h0a2.44,2.44,0,0,1-1,1,3.15,3.15,0,0,1-1.4.28,3.51,3.51,0,0,1-1.72-.37,2.49,2.49,0,0,1-1-1.13,5.79,5.79,0,0,1-.5-1.9,22.34,22.34,0,0,1-.13-2.62,15.51,15.51,0,0,1,.18-2.52,5.19,5.19,0,0,1,.64-1.82,2.9,2.9,0,0,1,1.18-1.1,4.16,4.16,0,0,1,1.84-.36,3.48,3.48,0,0,1,2.72.93,3.89,3.89,0,0,1,.83,2.68h-2.21A2.94,2.94,0,0,0,409,35.74Z"></path><path class="cls-1" d="M412.87,38.17a3.75,3.75,0,0,1,.58-1.42,2.6,2.6,0,0,1,1.05-.86,3.76,3.76,0,0,1,1.59-.3,4,4,0,0,1,1.65.27,2.34,2.34,0,0,1,1,.85,4,4,0,0,1,.54,1.43,10.43,10.43,0,0,1,.16,2,10.18,10.18,0,0,1-.17,2,3.75,3.75,0,0,1-.58,1.42,2.4,2.4,0,0,1-1.05.84,4.13,4.13,0,0,1-1.59.27,4.22,4.22,0,0,1-1.65-.25,2.19,2.19,0,0,1-1-.83,3.73,3.73,0,0,1-.54-1.42,10.58,10.58,0,0,1-.16-2A10.18,10.18,0,0,1,412.87,38.17Zm2.07,3.17a4.21,4.21,0,0,0,.15,1,1.4,1.4,0,0,0,.36.62.89.89,0,0,0,.64.22.93.93,0,0,0,.93-.7,7.51,7.51,0,0,0,.25-2.32A7.51,7.51,0,0,0,417,37.8a.93.93,0,0,0-.93-.7.89.89,0,0,0-.64.22,1.4,1.4,0,0,0-.36.62,4.21,4.21,0,0,0-.15,1c0,.38,0,.78,0,1.22S414.92,41,414.94,41.34Z"></path><path class="cls-1" d="M427.11,35.82,425,44.42h-2.56l-2.22-8.6h2.3L423.71,42h0l1.17-6.16Z"></path><path class="cls-1" d="M430,41.14a6,6,0,0,0,0,.75,2.4,2.4,0,0,0,.19.64,1.25,1.25,0,0,0,.33.45.8.8,0,0,0,.51.16.89.89,0,0,0,.82-.4,2.86,2.86,0,0,0,.35-1.21h2a3.52,3.52,0,0,1-.8,2.29,3.07,3.07,0,0,1-2.32.78,3.61,3.61,0,0,1-1.87-.4,2.55,2.55,0,0,1-1-1.06,4.19,4.19,0,0,1-.39-1.47c0-.54-.07-1.09-.07-1.63a11.08,11.08,0,0,1,.12-1.66,4,4,0,0,1,.48-1.43,2.66,2.66,0,0,1,1-1,3.69,3.69,0,0,1,1.79-.37,3.61,3.61,0,0,1,1.58.31,2.5,2.5,0,0,1,1,.88,3.87,3.87,0,0,1,.48,1.38,12.27,12.27,0,0,1,.13,1.8v.5H430Zm2.19-2.87a2.21,2.21,0,0,0-.17-.64.89.89,0,0,0-.34-.4,1,1,0,0,0-.55-.13.94.94,0,0,0-.55.15,1,1,0,0,0-.34.4,1.88,1.88,0,0,0-.19.55,4.18,4.18,0,0,0,0,.61v.33h2.25Q432.22,38.65,432.17,38.27Z"></path><path class="cls-1" d="M437.77,35.82V37h0a3,3,0,0,1,.82-1,1.85,1.85,0,0,1,1.17-.38h.2l.2,0v2.12l-.35,0h-.34a2.32,2.32,0,0,0-.58.08,1.77,1.77,0,0,0-.53.27,1.21,1.21,0,0,0-.38.48,1.61,1.61,0,0,0-.14.73v5.16h-2.21v-8.6Z"></path><path class="cls-1" d="M443.26,35.82v1h0a2.27,2.27,0,0,1,.91-.93,2.66,2.66,0,0,1,1.28-.3,2.13,2.13,0,0,1,1.62.58,2.58,2.58,0,0,1,.57,1.87v6.38h-2.21V38.49a1.49,1.49,0,0,0-.22-.94.92.92,0,0,0-.72-.26c-.78,0-1.17.47-1.17,1.42v5.71h-2.21v-8.6Z"></path><path class="cls-1" d="M451.42,35.82v.88h0a2.49,2.49,0,0,1,.94-.85,2.72,2.72,0,0,1,1.23-.26,2.25,2.25,0,0,1,1.29.35,1.73,1.73,0,0,1,.7,1h0a2,2,0,0,1,.83-1,2.51,2.51,0,0,1,1.35-.35,1.92,1.92,0,0,1,1.62.67,3,3,0,0,1,.52,1.91v6.25h-2.21v-6a1.4,1.4,0,0,0-.2-.83.72.72,0,0,0-.66-.29,1.09,1.09,0,0,0-.84.35,1.65,1.65,0,0,0-.31,1.12v5.66h-2.21v-6a1.47,1.47,0,0,0-.2-.83.74.74,0,0,0-.67-.29,1.09,1.09,0,0,0-.84.35,1.7,1.7,0,0,0-.31,1.12v5.66h-2.2v-8.6Z"></path><path class="cls-1" d="M463.48,41.14a4.56,4.56,0,0,0,.06.75,2.4,2.4,0,0,0,.18.64,1.41,1.41,0,0,0,.34.45.8.8,0,0,0,.51.16.91.91,0,0,0,.82-.4,3,3,0,0,0,.35-1.21h2a3.46,3.46,0,0,1-.8,2.29,3.05,3.05,0,0,1-2.32.78,3.63,3.63,0,0,1-1.87-.4,2.46,2.46,0,0,1-1-1.06,3.8,3.8,0,0,1-.39-1.47c-.05-.54-.08-1.09-.08-1.63a11.08,11.08,0,0,1,.12-1.66,4,4,0,0,1,.48-1.43,2.73,2.73,0,0,1,1-1,3.71,3.71,0,0,1,1.8-.37,3.56,3.56,0,0,1,1.57.31,2.43,2.43,0,0,1,1,.88,3.52,3.52,0,0,1,.48,1.38,11,11,0,0,1,.13,1.8v.5h-4.37Zm2.19-2.87a2.6,2.6,0,0,0-.16-.64,1,1,0,0,0-.34-.4,1,1,0,0,0-.55-.13,1,1,0,0,0-.56.15,1.12,1.12,0,0,0-.34.4,1.87,1.87,0,0,0-.18.55,3.15,3.15,0,0,0-.06.61v.33h2.26C465.73,38.81,465.7,38.52,465.67,38.27Z"></path><path class="cls-1" d="M471.27,35.82v1h0a2.21,2.21,0,0,1,.91-.93,2.66,2.66,0,0,1,1.28-.3,2.16,2.16,0,0,1,1.62.58,2.58,2.58,0,0,1,.57,1.87v6.38h-2.21V38.49a1.49,1.49,0,0,0-.22-.94.92.92,0,0,0-.72-.26c-.78,0-1.17.47-1.17,1.42v5.71h-2.21v-8.6Z"></path><path class="cls-1" d="M480,33.35v2.47h1.28v1.5H480V42a1.29,1.29,0,0,0,.15.72c.1.15.31.22.63.22h.26l.24,0v1.53c-.25,0-.48,0-.71,0l-.73,0a5,5,0,0,1-1.05-.09,1,1,0,0,1-.62-.35,1.51,1.51,0,0,1-.3-.69,6.49,6.49,0,0,1-.08-1.09V37.32h-1.12v-1.5h1.12V33.35Z"></path><path class="cls-1" d="M51,192.16h0v-7.83h2.11v11.43H50.5l-2.82-8h0v8H45.54V184.33h2.65Z"></path><path class="cls-1" d="M54.8,189.58a2.87,2.87,0,0,1,.24-1.25,2.22,2.22,0,0,1,.65-.82,2.51,2.51,0,0,1,1-.45,5,5,0,0,1,1.18-.13,5.42,5.42,0,0,1,1.6.19,2.24,2.24,0,0,1,.94.54,1.93,1.93,0,0,1,.46.84,4.49,4.49,0,0,1,.12,1.07v4.52a6,6,0,0,0,0,.95,3.42,3.42,0,0,0,.22.72H59.11a1.49,1.49,0,0,1-.17-.44c0-.16-.07-.31-.11-.46h0a1.81,1.81,0,0,1-.89.87,3.41,3.41,0,0,1-1.3.2,2.12,2.12,0,0,1-1-.2,1.63,1.63,0,0,1-.64-.55,2.57,2.57,0,0,1-.35-.79,3.7,3.7,0,0,1-.11-.87,3.58,3.58,0,0,1,.13-1.05,1.92,1.92,0,0,1,.39-.75,2.19,2.19,0,0,1,.67-.52,5.3,5.3,0,0,1,1-.37l1.24-.34a1.31,1.31,0,0,0,.69-.35,1,1,0,0,0,.19-.65,1.17,1.17,0,0,0-.23-.78,1.19,1.19,0,0,0-1.56,0,1.25,1.25,0,0,0-.25.82v.24h-2Zm3.55,2.15a4.27,4.27,0,0,1-.46.16,1.61,1.61,0,0,0-1,.48,1.34,1.34,0,0,0-.29.91,1.87,1.87,0,0,0,.19.85.68.68,0,0,0,.64.35,2,2,0,0,0,.47-.07,1.36,1.36,0,0,0,.44-.24,1.24,1.24,0,0,0,.33-.41,1.41,1.41,0,0,0,.12-.61v-1.7A1.94,1.94,0,0,1,58.35,191.73Z"></path><path class="cls-1" d="M65.36,184.69v2.46h1.28v1.5H65.36v4.66a1.35,1.35,0,0,0,.15.73.75.75,0,0,0,.63.21h.26l.24,0v1.54l-.71,0c-.23,0-.47,0-.73,0a5,5,0,0,1-1-.09,1.08,1.08,0,0,1-.62-.35,1.67,1.67,0,0,1-.3-.7,6.49,6.49,0,0,1-.08-1.09v-4.93H62v-1.5h1.12v-2.46Z"></path><path class="cls-1" d="M69.86,184.21v1.88H67.65v-1.88Zm0,2.94v8.61H67.65v-8.61Z"></path><path class="cls-1" d="M71.46,189.5a3.76,3.76,0,0,1,.57-1.41,2.62,2.62,0,0,1,1-.87,3.77,3.77,0,0,1,1.59-.29,4,4,0,0,1,1.65.26,2.31,2.31,0,0,1,1,.86,3.57,3.57,0,0,1,.54,1.42,10.58,10.58,0,0,1,.16,2,9.6,9.6,0,0,1-.17,2,3.77,3.77,0,0,1-.58,1.41,2.32,2.32,0,0,1-1,.84,4.21,4.21,0,0,1-1.6.27,4.42,4.42,0,0,1-1.65-.24,2.32,2.32,0,0,1-1-.84,3.83,3.83,0,0,1-.54-1.42,10.58,10.58,0,0,1-.16-2A9.52,9.52,0,0,1,71.46,189.5Zm2.06,3.17a4.21,4.21,0,0,0,.15,1,1.34,1.34,0,0,0,.36.62.91.91,0,0,0,.64.23.94.94,0,0,0,.93-.71,7.4,7.4,0,0,0,.26-2.32,7.49,7.49,0,0,0-.26-2.32.93.93,0,0,0-.93-.7.91.91,0,0,0-.64.22,1.38,1.38,0,0,0-.36.63,4.21,4.21,0,0,0-.15,1c0,.37,0,.78,0,1.21S73.5,192.3,73.52,192.67Z"></path><path class="cls-1" d="M81.52,187.15v1h0a2.3,2.3,0,0,1,.91-.94,2.68,2.68,0,0,1,1.28-.29,2.2,2.2,0,0,1,1.63.57,2.6,2.6,0,0,1,.57,1.87v6.39H83.73v-5.94a1.43,1.43,0,0,0-.23-.93.89.89,0,0,0-.72-.27c-.77,0-1.16.48-1.16,1.43v5.71H79.41v-8.61Z"></path><path class="cls-1" d="M87.55,189.58a2.87,2.87,0,0,1,.24-1.25,2.22,2.22,0,0,1,.65-.82,2.51,2.51,0,0,1,1-.45,5,5,0,0,1,1.18-.13,5.42,5.42,0,0,1,1.6.19,2.24,2.24,0,0,1,.94.54,1.93,1.93,0,0,1,.46.84,4.49,4.49,0,0,1,.12,1.07v4.52a6,6,0,0,0,0,.95,3.42,3.42,0,0,0,.22.72H91.86a1.82,1.82,0,0,1-.17-.44c0-.16-.07-.31-.11-.46h0a1.81,1.81,0,0,1-.89.87,3.41,3.41,0,0,1-1.3.2,2.12,2.12,0,0,1-1-.2,1.63,1.63,0,0,1-.64-.55,2.57,2.57,0,0,1-.35-.79,3.7,3.7,0,0,1-.11-.87,3.58,3.58,0,0,1,.13-1.05,1.92,1.92,0,0,1,.39-.75,2.19,2.19,0,0,1,.67-.52,5.3,5.3,0,0,1,1-.37l1.24-.34a1.27,1.27,0,0,0,.69-.35,1,1,0,0,0,.19-.65,1.17,1.17,0,0,0-.23-.78,1.19,1.19,0,0,0-1.56,0,1.25,1.25,0,0,0-.25.82v.24h-2Zm3.55,2.15a4.27,4.27,0,0,1-.46.16,1.61,1.61,0,0,0-1,.48,1.34,1.34,0,0,0-.29.91,1.87,1.87,0,0,0,.19.85.69.69,0,0,0,.64.35,2,2,0,0,0,.47-.07,1.26,1.26,0,0,0,.44-.24,1.24,1.24,0,0,0,.33-.41,1.41,1.41,0,0,0,.12-.61v-1.7A1.78,1.78,0,0,1,91.1,191.73Z"></path><path class="cls-1" d="M97.71,184.33v11.43H95.5V184.33Z"></path><path class="cls-1" d="M108.07,186.37a1.12,1.12,0,0,0-1.08-.56,1,1,0,0,0-.71.23,1.49,1.49,0,0,0-.44.75,6.11,6.11,0,0,0-.22,1.36c-.05.56-.07,1.25-.07,2.06a19.42,19.42,0,0,0,.09,2.09,4.73,4.73,0,0,0,.27,1.24,1.08,1.08,0,0,0,.47.59,1.22,1.22,0,0,0,.64.16,1.48,1.48,0,0,0,.57-.11,1,1,0,0,0,.46-.41,2.57,2.57,0,0,0,.3-.88,7.66,7.66,0,0,0,.11-1.5h2.31a9.86,9.86,0,0,1-.15,1.76,3.91,3.91,0,0,1-.53,1.46,2.64,2.64,0,0,1-1.11,1,4.08,4.08,0,0,1-1.84.35,4.32,4.32,0,0,1-2.07-.41,2.82,2.82,0,0,1-1.17-1.2,5.13,5.13,0,0,1-.53-1.87,24.06,24.06,0,0,1,0-4.8,5.19,5.19,0,0,1,.53-1.88,2.93,2.93,0,0,1,1.17-1.22,4.19,4.19,0,0,1,2.07-.44,3.92,3.92,0,0,1,1.94.4,2.74,2.74,0,0,1,1.06,1,3.28,3.28,0,0,1,.44,1.32,10.76,10.76,0,0,1,.09,1.34h-2.3A4.13,4.13,0,0,0,108.07,186.37Z"></path><path class="cls-1" d="M114.29,187.15v1.15h0a3.15,3.15,0,0,1,.82-1,1.83,1.83,0,0,1,1.16-.37h.2l.2,0v2.11l-.34,0H116a1.89,1.89,0,0,0-.58.08,1.54,1.54,0,0,0-.53.26,1.21,1.21,0,0,0-.38.48,1.61,1.61,0,0,0-.15.73v5.17h-2.2v-8.61Z"></path><path class="cls-1" d="M119.55,192.48a4.52,4.52,0,0,0,.06.74,2.3,2.3,0,0,0,.18.64,1.22,1.22,0,0,0,.34.45.8.8,0,0,0,.51.17.91.91,0,0,0,.82-.4,3.07,3.07,0,0,0,.35-1.22h2a3.43,3.43,0,0,1-.8,2.29,3.05,3.05,0,0,1-2.32.78,3.63,3.63,0,0,1-1.87-.4,2.38,2.38,0,0,1-1-1.05,3.9,3.9,0,0,1-.39-1.47c0-.55-.08-1.09-.08-1.64a11.18,11.18,0,0,1,.12-1.66,4,4,0,0,1,.48-1.42,2.64,2.64,0,0,1,1-1,3.76,3.76,0,0,1,1.79-.36,3.43,3.43,0,0,1,1.57.31,2.36,2.36,0,0,1,1,.88,3.53,3.53,0,0,1,.48,1.37,11,11,0,0,1,.13,1.8v.5h-4.37Zm2.19-2.87a2.14,2.14,0,0,0-.16-.64.9.9,0,0,0-.34-.4,1,1,0,0,0-.55-.14.92.92,0,0,0-.55.15,1.13,1.13,0,0,0-.35.4,2,2,0,0,0-.18.55,3.23,3.23,0,0,0-.06.61v.34h2.26A7,7,0,0,0,121.74,189.61Z"></path><path class="cls-1" d="M129.62,194.85a2.22,2.22,0,0,1-.83.84,2.39,2.39,0,0,1-1.13.24,2.18,2.18,0,0,1-2-1,6.94,6.94,0,0,1-.64-3.44,7.09,7.09,0,0,1,.64-3.46,2.17,2.17,0,0,1,2-1.06,2.12,2.12,0,0,1,1.07.25,2.61,2.61,0,0,1,.79.77h0v-3.62h2.21v11.43h-2.11v-.91Zm-2.17-1.28a.89.89,0,0,0,.93.72.93.93,0,0,0,1-.72,8,8,0,0,0,.21-2.12,8.08,8.08,0,0,0-.21-2.12.93.93,0,0,0-1-.71.9.9,0,0,0-.93.71,7.6,7.6,0,0,0-.22,2.12A7.5,7.5,0,0,0,127.45,193.57Z"></path><path class="cls-1" d="M135.68,184.21v1.88h-2.21v-1.88Zm0,2.94v8.61h-2.21v-8.61Z"></path><path class="cls-1" d="M140.08,184.69v2.46h1.28v1.5h-1.28v4.66a1.35,1.35,0,0,0,.15.73.74.74,0,0,0,.63.21h.26l.24,0v1.54l-.71,0c-.23,0-.47,0-.73,0a5,5,0,0,1-1-.09,1.08,1.08,0,0,1-.62-.35,1.45,1.45,0,0,1-.3-.7,6.49,6.49,0,0,1-.08-1.09v-4.93h-1.12v-1.5h1.12v-2.46Z"></path><path class="cls-1" d="M148.51,192.3a4.79,4.79,0,0,0,.06.79,1.57,1.57,0,0,0,.21.63,1.15,1.15,0,0,0,.41.41,1.26,1.26,0,0,0,.67.16,1.17,1.17,0,0,0,1.08-.57,1.73,1.73,0,0,0,.2-.63,4.79,4.79,0,0,0,.06-.79v-8h2.3v8a4.63,4.63,0,0,1-.3,1.8,2.85,2.85,0,0,1-.82,1.13,2.79,2.79,0,0,1-1.16.56,6.16,6.16,0,0,1-1.36.14,7.48,7.48,0,0,1-1.36-.12,2.82,2.82,0,0,1-1.17-.52,2.75,2.75,0,0,1-.82-1.12,4.91,4.91,0,0,1-.3-1.87v-8h2.3Z"></path><path class="cls-1" d="M157.17,187.15v1h0a2.24,2.24,0,0,1,.91-.94,2.66,2.66,0,0,1,1.28-.29,2.2,2.2,0,0,1,1.63.57,2.65,2.65,0,0,1,.56,1.87v6.39h-2.2v-5.94a1.43,1.43,0,0,0-.23-.93.89.89,0,0,0-.72-.27c-.78,0-1.17.48-1.17,1.43v5.71h-2.2v-8.61Z"></path><path class="cls-1" d="M165.5,184.21v1.88h-2.21v-1.88Zm0,2.94v8.61h-2.21v-8.61Z"></path><path class="cls-1" d="M167.1,189.5a3.77,3.77,0,0,1,.58-1.41,2.55,2.55,0,0,1,1-.87,3.77,3.77,0,0,1,1.59-.29,4,4,0,0,1,1.65.26,2.36,2.36,0,0,1,1,.86,3.9,3.9,0,0,1,.54,1.42,10.58,10.58,0,0,1,.16,2,10.37,10.37,0,0,1-.17,2,3.77,3.77,0,0,1-.58,1.41,2.4,2.4,0,0,1-1.05.84,4.13,4.13,0,0,1-1.59.27,4.42,4.42,0,0,1-1.65-.24,2.27,2.27,0,0,1-1-.84,3.51,3.51,0,0,1-.54-1.42,10.58,10.58,0,0,1-.16-2A10.33,10.33,0,0,1,167.1,189.5Zm2.07,3.17a4.21,4.21,0,0,0,.15,1,1.34,1.34,0,0,0,.36.62.9.9,0,0,0,.64.23.94.94,0,0,0,.93-.71,7.47,7.47,0,0,0,.25-2.32,7.56,7.56,0,0,0-.25-2.32.93.93,0,0,0-.93-.7.89.89,0,0,0-.64.22,1.38,1.38,0,0,0-.36.63,4.21,4.21,0,0,0-.15,1c0,.37,0,.78,0,1.21S169.15,192.3,169.17,192.67Z"></path><path class="cls-1" d="M177.17,187.15v1h0a2.24,2.24,0,0,1,.91-.94,2.66,2.66,0,0,1,1.28-.29,2.18,2.18,0,0,1,1.62.57,2.6,2.6,0,0,1,.57,1.87v6.39h-2.21v-5.94a1.44,1.44,0,0,0-.22-.93.89.89,0,0,0-.72-.27c-.78,0-1.17.48-1.17,1.43v5.71h-2.21v-8.61Z"></path><path class="cls-1" d="M191.76,184.33l3,11.43h-2.4l-.53-2.42h-3l-.52,2.42h-2.4l3-11.43Zm-.31,7.12-1.1-5.13h0l-1.11,5.13Z"></path><path class="cls-1" d="M200.06,194.85a2.21,2.21,0,0,1-.82.84,2.39,2.39,0,0,1-1.13.24,2.17,2.17,0,0,1-2-1,6.83,6.83,0,0,1-.64-3.44,7,7,0,0,1,.64-3.46,2.16,2.16,0,0,1,2-1.06,2.05,2.05,0,0,1,1.06.25,2.53,2.53,0,0,1,.8.77h0v-3.62h2.21v11.43h-2.12v-.91Zm-2.17-1.28a1,1,0,0,0,1.89,0,7.5,7.5,0,0,0,.22-2.12,7.6,7.6,0,0,0-.22-2.12,1,1,0,0,0-1.89,0,8.08,8.08,0,0,0-.21,2.12A8,8,0,0,0,197.89,193.57Z"></path><path class="cls-1" d="M206,187.15V188h0a2.58,2.58,0,0,1,.94-.85,2.8,2.8,0,0,1,1.24-.25,2.22,2.22,0,0,1,1.29.35,1.71,1.71,0,0,1,.69,1h0a2,2,0,0,1,.83-1,2.56,2.56,0,0,1,1.35-.34,1.92,1.92,0,0,1,1.62.66,3,3,0,0,1,.52,1.91v6.26h-2.2v-6a1.47,1.47,0,0,0-.2-.83.78.78,0,0,0-.67-.29,1.09,1.09,0,0,0-.84.35,1.67,1.67,0,0,0-.31,1.12v5.67h-2.21v-6a1.4,1.4,0,0,0-.2-.83.74.74,0,0,0-.66-.29,1.09,1.09,0,0,0-.84.35,1.67,1.67,0,0,0-.31,1.12v5.67h-2.21v-8.61Z"></path><path class="cls-1" d="M218.41,184.21v1.88h-2.2v-1.88Zm0,2.94v8.61h-2.2v-8.61Z"></path><path class="cls-1" d="M222.24,187.15v1h0a2.24,2.24,0,0,1,.91-.94,2.68,2.68,0,0,1,1.28-.29,2.2,2.2,0,0,1,1.63.57,2.6,2.6,0,0,1,.56,1.87v6.39h-2.2v-5.94a1.43,1.43,0,0,0-.23-.93.89.89,0,0,0-.72-.27c-.78,0-1.17.48-1.17,1.43v5.71h-2.2v-8.61Z"></path><path class="cls-1" d="M230.57,184.21v1.88h-2.2v-1.88Zm0,2.94v8.61h-2.2v-8.61Z"></path><path class="cls-1" d="M233.9,193.23a1.32,1.32,0,0,0,.3.9,1.06,1.06,0,0,0,.85.35,1.22,1.22,0,0,0,.82-.26,1,1,0,0,0,.3-.77.82.82,0,0,0-.24-.63,1.75,1.75,0,0,0-.56-.34l-1.55-.56a2.9,2.9,0,0,1-1.37-.91,2.29,2.29,0,0,1-.47-1.49,2.77,2.77,0,0,1,.18-1,2.11,2.11,0,0,1,.56-.83,2.8,2.8,0,0,1,1-.56,4.7,4.7,0,0,1,1.45-.2,3.25,3.25,0,0,1,2.22.64,2.28,2.28,0,0,1,.72,1.8v.36h-2a1.73,1.73,0,0,0-.22-1,.84.84,0,0,0-.76-.31,1.19,1.19,0,0,0-.72.23.83.83,0,0,0-.32.7.92.92,0,0,0,.2.57,1.62,1.62,0,0,0,.76.44l1.33.44a3,3,0,0,1,1.47.92,2.5,2.5,0,0,1,.44,1.55,2.75,2.75,0,0,1-.24,1.19,2.31,2.31,0,0,1-.67.84,2.71,2.71,0,0,1-1,.48,5.12,5.12,0,0,1-1.28.14,5.68,5.68,0,0,1-1.55-.17,2.21,2.21,0,0,1-1-.53,1.92,1.92,0,0,1-.51-.86,4.29,4.29,0,0,1-.14-1.12v-.31h2Z"></path><path class="cls-1" d="M242.24,184.69v2.46h1.28v1.5h-1.28v4.66a1.35,1.35,0,0,0,.15.73.74.74,0,0,0,.63.21h.26l.24,0v1.54l-.71,0c-.23,0-.48,0-.73,0a5,5,0,0,1-1.05-.09,1.08,1.08,0,0,1-.62-.35,1.45,1.45,0,0,1-.3-.7,6.49,6.49,0,0,1-.08-1.09v-4.93h-1.12v-1.5H240v-2.46Z"></path><path class="cls-1" d="M246.56,187.15v1.15h0a3.15,3.15,0,0,1,.82-1,1.83,1.83,0,0,1,1.16-.37h.2l.2,0v2.11l-.34,0h-.34a1.89,1.89,0,0,0-.58.08,1.54,1.54,0,0,0-.53.26,1.21,1.21,0,0,0-.38.48,1.61,1.61,0,0,0-.15.73v5.17h-2.2v-8.61Z"></path><path class="cls-1" d="M249.92,189.58a2.87,2.87,0,0,1,.24-1.25,2.12,2.12,0,0,1,.65-.82,2.51,2.51,0,0,1,1-.45,4.88,4.88,0,0,1,1.17-.13,5.38,5.38,0,0,1,1.6.19,2.28,2.28,0,0,1,1,.54,1.91,1.91,0,0,1,.45.84,4.49,4.49,0,0,1,.12,1.07v4.52a5.79,5.79,0,0,0,.06.95,3.35,3.35,0,0,0,.21.72h-2.11a2.35,2.35,0,0,1-.17-.44c0-.16-.07-.31-.1-.46h0a1.85,1.85,0,0,1-.89.87,3.45,3.45,0,0,1-1.3.2,2.09,2.09,0,0,1-1-.2,1.56,1.56,0,0,1-.64-.55,2.35,2.35,0,0,1-.35-.79,3.24,3.24,0,0,1-.11-.87,4,4,0,0,1,.12-1.05,2,2,0,0,1,1.07-1.27,5.45,5.45,0,0,1,1-.37l1.25-.34a1.31,1.31,0,0,0,.69-.35,1,1,0,0,0,.19-.65,1.23,1.23,0,0,0-.23-.78,1,1,0,0,0-.79-.28,1,1,0,0,0-.77.3,1.26,1.26,0,0,0-.26.82v.24h-2Zm3.55,2.15c-.17.07-.33.12-.46.16a1.61,1.61,0,0,0-1,.48,1.29,1.29,0,0,0-.29.91,1.75,1.75,0,0,0,.19.85.68.68,0,0,0,.64.35,1.9,1.9,0,0,0,.46-.07,1.26,1.26,0,0,0,.44-.24,1,1,0,0,0,.33-.41,1.28,1.28,0,0,0,.13-.61v-1.7A1.94,1.94,0,0,1,253.47,191.73Z"></path><path class="cls-1" d="M260.48,184.69v2.46h1.28v1.5h-1.28v4.66a1.35,1.35,0,0,0,.15.73.74.74,0,0,0,.63.21h.26l.24,0v1.54l-.71,0c-.23,0-.48,0-.73,0a5,5,0,0,1-1.05-.09,1.15,1.15,0,0,1-.63-.35,1.54,1.54,0,0,1-.29-.7,6.49,6.49,0,0,1-.08-1.09v-4.93h-1.12v-1.5h1.12v-2.46Z"></path><path class="cls-1" d="M265,184.21v1.88h-2.2v-1.88Zm0,2.94v8.61h-2.2v-8.61Z"></path><path class="cls-1" d="M266.57,189.5a3.77,3.77,0,0,1,.58-1.41,2.62,2.62,0,0,1,1.05-.87,3.77,3.77,0,0,1,1.59-.29,4,4,0,0,1,1.65.26,2.36,2.36,0,0,1,1,.86,3.9,3.9,0,0,1,.54,1.42,10.58,10.58,0,0,1,.16,2,10.37,10.37,0,0,1-.17,2,3.77,3.77,0,0,1-.58,1.41,2.4,2.4,0,0,1-1.05.84,4.13,4.13,0,0,1-1.59.27,4.42,4.42,0,0,1-1.65-.24,2.27,2.27,0,0,1-1-.84,3.67,3.67,0,0,1-.54-1.42,10.58,10.58,0,0,1-.16-2A10.33,10.33,0,0,1,266.57,189.5Zm2.07,3.17a4.21,4.21,0,0,0,.15,1,1.34,1.34,0,0,0,.36.62.9.9,0,0,0,.64.23.94.94,0,0,0,.93-.71,7.47,7.47,0,0,0,.25-2.32,7.56,7.56,0,0,0-.25-2.32.93.93,0,0,0-.93-.7.89.89,0,0,0-.64.22,1.38,1.38,0,0,0-.36.63,4.21,4.21,0,0,0-.15,1c0,.37,0,.78,0,1.21S268.62,192.3,268.64,192.67Z"></path><path class="cls-1" d="M276.64,187.15v1h0a2.24,2.24,0,0,1,.91-.94,2.66,2.66,0,0,1,1.28-.29,2.18,2.18,0,0,1,1.62.57,2.6,2.6,0,0,1,.57,1.87v6.39h-2.21v-5.94a1.44,1.44,0,0,0-.22-.93.89.89,0,0,0-.72-.27c-.78,0-1.17.48-1.17,1.43v5.71h-2.21v-8.61Z"></path><path class="cls-1" d="M284.92,195.34a8.12,8.12,0,0,1-.08,1.13,2.56,2.56,0,0,1-.33.93,2,2,0,0,1-.65.64,2.5,2.5,0,0,1-1.05.31v-1.12a.86.86,0,0,0,.63-.45,1.6,1.6,0,0,0,.2-.81v-.21h-.83v-2.5h2.11Z"></path><path class="cls-1" d="M290.08,189.58a2.87,2.87,0,0,1,.24-1.25,2.12,2.12,0,0,1,.65-.82,2.51,2.51,0,0,1,1-.45,4.88,4.88,0,0,1,1.17-.13,5.38,5.38,0,0,1,1.6.19,2.18,2.18,0,0,1,.94.54,1.83,1.83,0,0,1,.46.84,4.49,4.49,0,0,1,.12,1.07v4.52a5.79,5.79,0,0,0,.06.95,3.35,3.35,0,0,0,.21.72h-2.11a2.35,2.35,0,0,1-.17-.44c0-.16-.07-.31-.1-.46h0a1.89,1.89,0,0,1-.89.87,3.45,3.45,0,0,1-1.3.2,2.09,2.09,0,0,1-1-.2,1.56,1.56,0,0,1-.64-.55,2.35,2.35,0,0,1-.35-.79,3.24,3.24,0,0,1-.11-.87,4,4,0,0,1,.12-1.05A2,2,0,0,1,291,191.2a5.45,5.45,0,0,1,1-.37l1.25-.34a1.31,1.31,0,0,0,.69-.35,1,1,0,0,0,.19-.65,1.23,1.23,0,0,0-.23-.78,1,1,0,0,0-.8-.28.94.94,0,0,0-.76.3,1.26,1.26,0,0,0-.26.82v.24h-2Zm3.55,2.15a4.38,4.38,0,0,1-.47.16,1.68,1.68,0,0,0-1,.48,1.34,1.34,0,0,0-.28.91,1.75,1.75,0,0,0,.19.85.68.68,0,0,0,.64.35,1.9,1.9,0,0,0,.46-.07,1.26,1.26,0,0,0,.44-.24,1.13,1.13,0,0,0,.33-.41,1.28,1.28,0,0,0,.13-.61v-1.7A1.94,1.94,0,0,1,293.63,191.73Z"></path><path class="cls-1" d="M304.17,192.3a4.79,4.79,0,0,0,.06.79,2,2,0,0,0,.21.63,1.15,1.15,0,0,0,.41.41,1.26,1.26,0,0,0,.67.16,1.23,1.23,0,0,0,.67-.16,1.15,1.15,0,0,0,.41-.41,2,2,0,0,0,.21-.63,6.3,6.3,0,0,0,.05-.79v-8h2.31v8a4.62,4.62,0,0,1-.31,1.8,2.84,2.84,0,0,1-.81,1.13,2.89,2.89,0,0,1-1.17.56,6.09,6.09,0,0,1-1.36.14,7.48,7.48,0,0,1-1.36-.12,2.59,2.59,0,0,1-2-1.64,4.91,4.91,0,0,1-.3-1.87v-8h2.3Z"></path><path class="cls-1" d="M313,195.76h-2.12v-2.5H313Z"></path><path class="cls-1" d="M316.64,192.53a4,4,0,0,0,.06.72,1.24,1.24,0,0,0,.24.56,1.21,1.21,0,0,0,.47.35,2,2,0,0,0,.75.13,1.47,1.47,0,0,0,.95-.35,1.29,1.29,0,0,0,.42-1.06,1.93,1.93,0,0,0-.1-.67,1.38,1.38,0,0,0-.35-.5,2.64,2.64,0,0,0-.63-.41,7.7,7.7,0,0,0-1-.37,8.31,8.31,0,0,1-1.32-.56,3.49,3.49,0,0,1-.94-.72,2.54,2.54,0,0,1-.55-.94,3.9,3.9,0,0,1-.18-1.24,3.21,3.21,0,0,1,.95-2.53,3.78,3.78,0,0,1,2.59-.83,5.68,5.68,0,0,1,1.41.17,2.85,2.85,0,0,1,1.12.54,2.53,2.53,0,0,1,.74,1,3.33,3.33,0,0,1,.26,1.4v.32h-2.2a2.29,2.29,0,0,0-.29-1.25,1,1,0,0,0-1-.44,1.5,1.5,0,0,0-.64.11,1,1,0,0,0-.41.29,1.15,1.15,0,0,0-.21.43,2,2,0,0,0-.05.49,1.63,1.63,0,0,0,.22.89,2.07,2.07,0,0,0,1,.67l1.78.76a6.81,6.81,0,0,1,1.07.6,3,3,0,0,1,.66.68,2.25,2.25,0,0,1,.35.79,4.75,4.75,0,0,1,.09,1,3.14,3.14,0,0,1-1.05,2.63,4.59,4.59,0,0,1-2.92.82,3.85,3.85,0,0,1-2.79-.84,3.33,3.33,0,0,1-.84-2.44v-.46h2.31Z"></path><path class="cls-1" d="M325.42,195.76h-2.11v-2.5h2.11Z"></path><path class="cls-1" d="M335.65,187.07a2.2,2.2,0,0,0-.23-.62A1.51,1.51,0,0,0,335,186a1,1,0,0,0-.6-.18,1.26,1.26,0,0,0-1.2.92,9.31,9.31,0,0,0-.37,3.08c0,.68,0,1.3.07,1.85a7.13,7.13,0,0,0,.23,1.42,1.93,1.93,0,0,0,.48.89,1.1,1.1,0,0,0,.81.32,1,1,0,0,0,.45-.12,1.44,1.44,0,0,0,.47-.33,2,2,0,0,0,.36-.57,2.21,2.21,0,0,0,.14-.81v-1.17h-1.52V189.6h3.73v6.16h-1.7V194.7h0a2.38,2.38,0,0,1-1,1,3.15,3.15,0,0,1-1.4.28,3.6,3.6,0,0,1-1.72-.36,2.57,2.57,0,0,1-1-1.14,5.65,5.65,0,0,1-.5-1.9,22.27,22.27,0,0,1-.13-2.61,15.72,15.72,0,0,1,.18-2.53,5.19,5.19,0,0,1,.64-1.82,2.82,2.82,0,0,1,1.18-1.09,4,4,0,0,1,1.84-.37,3.45,3.45,0,0,1,2.72.94,3.91,3.91,0,0,1,.83,2.68h-2.21A3,3,0,0,0,335.65,187.07Z"></path><path class="cls-1" d="M339.53,189.5a3.77,3.77,0,0,1,.58-1.41,2.49,2.49,0,0,1,1.05-.87,3.77,3.77,0,0,1,1.59-.29,4,4,0,0,1,1.65.26,2.36,2.36,0,0,1,1,.86,3.9,3.9,0,0,1,.54,1.42,10.58,10.58,0,0,1,.16,2,9.55,9.55,0,0,1-.18,2,3.76,3.76,0,0,1-.57,1.41,2.4,2.4,0,0,1-1.05.84,4.13,4.13,0,0,1-1.59.27,4.42,4.42,0,0,1-1.65-.24,2.27,2.27,0,0,1-1-.84,3.51,3.51,0,0,1-.54-1.42,10.58,10.58,0,0,1-.16-2A9.56,9.56,0,0,1,339.53,189.5Zm2.07,3.17a4.21,4.21,0,0,0,.15,1,1.34,1.34,0,0,0,.36.62.9.9,0,0,0,.64.23.94.94,0,0,0,.93-.71,7.47,7.47,0,0,0,.25-2.32,7.56,7.56,0,0,0-.25-2.32.93.93,0,0,0-.93-.7.89.89,0,0,0-.64.22,1.38,1.38,0,0,0-.36.63,4.21,4.21,0,0,0-.15,1c0,.37,0,.78,0,1.21S341.57,192.3,341.6,192.67Z"></path><path class="cls-1" d="M353.77,187.15l-2.16,8.61h-2.56l-2.22-8.61h2.3l1.23,6.16h0l1.17-6.16Z"></path><path class="cls-1" d="M356.63,192.48a4.52,4.52,0,0,0,.06.74,2.69,2.69,0,0,0,.18.64,1.22,1.22,0,0,0,.34.45.8.8,0,0,0,.51.17.89.89,0,0,0,.82-.4,2.91,2.91,0,0,0,.35-1.22h2a3.43,3.43,0,0,1-.8,2.29,3.05,3.05,0,0,1-2.32.78,3.63,3.63,0,0,1-1.87-.4,2.38,2.38,0,0,1-1-1.05,4.31,4.31,0,0,1-.39-1.47c-.05-.55-.07-1.09-.07-1.64a11.18,11.18,0,0,1,.12-1.66,4,4,0,0,1,.48-1.42,2.61,2.61,0,0,1,1-1,3.79,3.79,0,0,1,1.79-.36,3.47,3.47,0,0,1,1.58.31,2.34,2.34,0,0,1,1,.88,3.53,3.53,0,0,1,.48,1.37,11,11,0,0,1,.13,1.8v.5h-4.37Zm2.2-2.87a2.47,2.47,0,0,0-.17-.64.84.84,0,0,0-.34-.4,1,1,0,0,0-.55-.14.94.94,0,0,0-.55.15,1.13,1.13,0,0,0-.35.4,2.37,2.37,0,0,0-.18.55,3.23,3.23,0,0,0-.06.61v.34h2.26Q358.88,190,358.83,189.61Z"></path><path class="cls-1" d="M364.43,187.15v1.15h0a3.12,3.12,0,0,1,.81-1,1.84,1.84,0,0,1,1.17-.37h.2l.2,0v2.11l-.34,0h-.35a1.87,1.87,0,0,0-.57.08,1.54,1.54,0,0,0-.53.26,1.21,1.21,0,0,0-.38.48,1.61,1.61,0,0,0-.15.73v5.17h-2.21v-8.61Z"></path><path class="cls-1" d="M369.91,187.15v1h0a2.24,2.24,0,0,1,.91-.94,2.66,2.66,0,0,1,1.28-.29,2.19,2.19,0,0,1,1.62.57,2.6,2.6,0,0,1,.57,1.87v6.39h-2.21v-5.94a1.44,1.44,0,0,0-.22-.93.89.89,0,0,0-.72-.27c-.78,0-1.17.48-1.17,1.43v5.71H367.8v-8.61Z"></path><path class="cls-1" d="M378.07,187.15V188h0a2.56,2.56,0,0,1,.93-.85,2.8,2.8,0,0,1,1.24-.25,2.2,2.2,0,0,1,1.29.35,1.68,1.68,0,0,1,.7,1h0a1.93,1.93,0,0,1,.82-1,2.57,2.57,0,0,1,1.36-.34,1.94,1.94,0,0,1,1.62.66,3,3,0,0,1,.52,1.91v6.26h-2.21v-6a1.47,1.47,0,0,0-.2-.83.74.74,0,0,0-.66-.29,1.07,1.07,0,0,0-.84.35,1.66,1.66,0,0,0-.32,1.12v5.67h-2.2v-6a1.47,1.47,0,0,0-.2-.83.78.78,0,0,0-.67-.29,1.09,1.09,0,0,0-.84.35,1.67,1.67,0,0,0-.31,1.12v5.67H376v-8.61Z"></path><path class="cls-1" d="M390.14,192.48a6,6,0,0,0,.05.74,2.29,2.29,0,0,0,.19.64,1.12,1.12,0,0,0,.34.45.77.77,0,0,0,.51.17.88.88,0,0,0,.81-.4,2.91,2.91,0,0,0,.35-1.22h2a3.43,3.43,0,0,1-.8,2.29,3.07,3.07,0,0,1-2.32.78,3.63,3.63,0,0,1-1.87-.4,2.46,2.46,0,0,1-1-1.05A4.31,4.31,0,0,1,388,193c0-.55-.07-1.09-.07-1.64a11.18,11.18,0,0,1,.12-1.66,4,4,0,0,1,.48-1.42,2.61,2.61,0,0,1,1-1,3.82,3.82,0,0,1,1.79-.36,3.45,3.45,0,0,1,1.58.31,2.43,2.43,0,0,1,1,.88,3.89,3.89,0,0,1,.48,1.37,12.27,12.27,0,0,1,.13,1.8v.5h-4.37Zm2.19-2.87a2.12,2.12,0,0,0-.17-.64.88.88,0,0,0-.33-.4,1.06,1.06,0,0,0-.56-.14,1,1,0,0,0-.55.15,1.1,1.1,0,0,0-.34.4,2,2,0,0,0-.19.55,4.3,4.3,0,0,0-.05.61v.34h2.25Q392.38,190,392.33,189.61Z"></path><path class="cls-1" d="M397.93,187.15v1h0a2.26,2.26,0,0,1,.92-.94,2.66,2.66,0,0,1,1.28-.29,2.19,2.19,0,0,1,1.62.57,2.6,2.6,0,0,1,.57,1.87v6.39h-2.21v-5.94a1.5,1.5,0,0,0-.22-.93.89.89,0,0,0-.72-.27c-.78,0-1.17.48-1.17,1.43v5.71h-2.21v-8.61Z"></path><path class="cls-1" d="M406.67,184.69v2.46H408v1.5h-1.28v4.66a1.35,1.35,0,0,0,.15.73.74.74,0,0,0,.63.21h.26l.24,0v1.54l-.72,0c-.22,0-.47,0-.72,0a5,5,0,0,1-1.05-.09,1.15,1.15,0,0,1-.63-.35,1.54,1.54,0,0,1-.29-.7,5.58,5.58,0,0,1-.08-1.09v-4.93h-1.12v-1.5h1.12v-2.46Z"></path><path class="cls-1" d="M417.42,184.33l3,11.43H418l-.53-2.42h-3l-.52,2.42h-2.4l3-11.43Zm-.31,7.12-1.1-5.13h0l-1.11,5.13Z"></path><path class="cls-1" d="M427.79,195.33a3.39,3.39,0,0,1-.83,2.49,3.77,3.77,0,0,1-2.76.83,3.44,3.44,0,0,1-2.17-.6,2.05,2.05,0,0,1-.76-1.7h2.12a.77.77,0,0,0,.33.66,1.42,1.42,0,0,0,.35.17,1,1,0,0,0,.39.07,1,1,0,0,0,.94-.44,2,2,0,0,0,.28-1.07v-1.13h0a2.58,2.58,0,0,1-.82.76,1.93,1.93,0,0,1-1,.29,2.2,2.2,0,0,1-2-1,6.21,6.21,0,0,1-.67-3.35,13.65,13.65,0,0,1,.09-1.54,4.71,4.71,0,0,1,.37-1.41,2.53,2.53,0,0,1,.82-1,2.29,2.29,0,0,1,1.43-.4,2.08,2.08,0,0,1,1,.25,1.89,1.89,0,0,1,.81.93h0v-1h2.11Zm-4.38-2.76a2.94,2.94,0,0,0,.16.72,1.17,1.17,0,0,0,.34.49.85.85,0,0,0,.57.19.94.94,0,0,0,.58-.19,1.28,1.28,0,0,0,.37-.5,3.07,3.07,0,0,0,.19-.78,7.57,7.57,0,0,0,.06-1,7.13,7.13,0,0,0-.25-2.22.91.91,0,0,0-.91-.66,1.05,1.05,0,0,0-.59.16,1,1,0,0,0-.35.52,3.61,3.61,0,0,0-.17,1c0,.4,0,.89,0,1.47A7.51,7.51,0,0,0,423.41,192.57Z"></path><path class="cls-1" d="M431.39,192.48a6,6,0,0,0,.05.74,2.29,2.29,0,0,0,.19.64,1.1,1.1,0,0,0,.33.45.81.81,0,0,0,.52.17.88.88,0,0,0,.81-.4,2.91,2.91,0,0,0,.35-1.22h2a3.48,3.48,0,0,1-.8,2.29,3.07,3.07,0,0,1-2.32.78,3.61,3.61,0,0,1-1.87-.4,2.46,2.46,0,0,1-1-1.05,4.31,4.31,0,0,1-.39-1.47c-.05-.55-.07-1.09-.07-1.64a11.18,11.18,0,0,1,.12-1.66,4,4,0,0,1,.48-1.42,2.61,2.61,0,0,1,1-1,3.82,3.82,0,0,1,1.79-.36,3.47,3.47,0,0,1,1.58.31,2.43,2.43,0,0,1,1,.88,3.89,3.89,0,0,1,.48,1.37,12.27,12.27,0,0,1,.13,1.8v.5h-4.37Zm2.19-2.87a2.12,2.12,0,0,0-.17-.64.84.84,0,0,0-.34-.4,1,1,0,0,0-.55-.14.94.94,0,0,0-.55.15,1.1,1.1,0,0,0-.34.4,2,2,0,0,0-.19.55,4.3,4.3,0,0,0-.05.61v.34h2.25Q433.63,190,433.58,189.61Z"></path><path class="cls-1" d="M439.18,187.15v1h0a2.3,2.3,0,0,1,.91-.94,2.68,2.68,0,0,1,1.28-.29,2.2,2.2,0,0,1,1.63.57,2.6,2.6,0,0,1,.57,1.87v6.39h-2.21v-5.94a1.43,1.43,0,0,0-.23-.93.89.89,0,0,0-.72-.27c-.78,0-1.16.48-1.16,1.43v5.71h-2.21v-8.61Z"></path><path class="cls-1" d="M449.33,189.63a2.21,2.21,0,0,0-.14-.55.94.94,0,0,0-.3-.4.81.81,0,0,0-.51-.15,1.12,1.12,0,0,0-.66.18,1,1,0,0,0-.38.54,3.48,3.48,0,0,0-.18.92c0,.36-.05.8-.05,1.3s0,1,.05,1.37a3.48,3.48,0,0,0,.18.93.92.92,0,0,0,1,.71.85.85,0,0,0,.81-.48,3.3,3.3,0,0,0,.26-1.54h2.11a3.89,3.89,0,0,1-.76,2.59,3.14,3.14,0,0,1-2.52.88,4.58,4.58,0,0,1-1.45-.2,2,2,0,0,1-1-.72,3.58,3.58,0,0,1-.62-1.39,10.08,10.08,0,0,1-.2-2.17,8.07,8.07,0,0,1,.25-2.2,3.58,3.58,0,0,1,.72-1.39,2.57,2.57,0,0,1,1.11-.73,4.73,4.73,0,0,1,1.4-.2,2.93,2.93,0,0,1,2.32.89,3.63,3.63,0,0,1,.77,2.43h-2.11A4.21,4.21,0,0,0,449.33,189.63Z"></path><path class="cls-1" d="M453.05,196.93a1.06,1.06,0,0,0,.87-.32,1.5,1.5,0,0,0,.31-.85l-2.41-8.61h2.3l1.28,5.95h0l1.12-5.95h2.2l-2.08,8a14.66,14.66,0,0,1-.55,1.74,3.07,3.07,0,0,1-.62,1,1.69,1.69,0,0,1-.87.47,5.58,5.58,0,0,1-1.27.12h-.89v-1.65A3.66,3.66,0,0,0,453.05,196.93Z"></path><path class="cls-1" d="M99.31,73.33l35.76,57.48h.24V73.33H153V159H134.11L98.47,101.65h-.24V159H80.59V73.33Z"></path><path class="cls-1" d="M224.47,96.19a18.94,18.94,0,0,0-4.2-4.74,19.37,19.37,0,0,0-5.7-3.18,19.59,19.59,0,0,0-6.66-1.14,22,22,0,0,0-10.8,2.46,20.39,20.39,0,0,0-7.2,6.6,28.92,28.92,0,0,0-4,9.42,46.88,46.88,0,0,0-1.26,10.92,43.62,43.62,0,0,0,1.26,10.5,28.38,28.38,0,0,0,4,9.18,20.6,20.6,0,0,0,7.2,6.54,22,22,0,0,0,10.8,2.46q8.64,0,13.5-5.28T227.35,126h18.24a43.56,43.56,0,0,1-3.72,14.52,34.78,34.78,0,0,1-7.92,11,33.67,33.67,0,0,1-11.52,7,42.21,42.21,0,0,1-14.52,2.4,43.93,43.93,0,0,1-17.7-3.42A37.93,37.93,0,0,1,177,148.09a41.7,41.7,0,0,1-8.28-14.1,51.75,51.75,0,0,1-2.88-17.46,53.54,53.54,0,0,1,2.88-17.82A42.81,42.81,0,0,1,177,84.37a37.86,37.86,0,0,1,13.26-9.6,45.94,45.94,0,0,1,31.08-1.44,36.22,36.22,0,0,1,11.28,5.94,32.1,32.1,0,0,1,8.22,9.66,34.53,34.53,0,0,1,4.08,13.2H226.63A15.38,15.38,0,0,0,224.47,96.19Z"></path><path class="cls-1" d="M321.43,152.47q-9.72,8.46-26.88,8.46-17.4,0-26.94-8.4t-9.54-25.92V73.33h18.84v53.28a38.83,38.83,0,0,0,.6,6.84,13.3,13.3,0,0,0,7.86,10.14,21.7,21.7,0,0,0,9.18,1.62q10.08,0,13.92-4.5t3.84-14.1V73.33h18.84v53.28Q331.15,144,321.43,152.47Z"></path><path class="cls-1" d="M390.07,73.33l32,85.68H402.55l-6.48-19.08H364L357.31,159h-19l32.4-85.68Zm1.08,52.56-10.8-31.44h-.24L369,125.89Z"></path></svg>